<?xml version="1.0" standalone="no"?>
<!DOCTYPE svg PUBLIC "-//W3C//DTD SVG 1.1//EN" "http://www.w3.org/Graphics/SVG/1.1/DTD/svg11.dtd" >
<svg xmlns="http://www.w3.org/2000/svg">
<metadata>Generated by IcoMoon</metadata>
<defs>
<font id="myprestamodules" horiz-adv-x="1024">
<font-face units-per-em="1024" ascent="960" descent="-64" />
<missing-glyph horiz-adv-x="1024" />
<glyph unicode="&#x20;" horiz-adv-x="512" d="" />
<glyph unicode="&#xe900;" glyph-name="add" d="M916.122 960h-808.245c-59.584 0-107.878-48.503-107.878-107.878v-808.245c0-59.584 48.503-107.878 107.878-107.878h808.245c59.584 0 107.878 48.503 107.878 107.878v808.245c0 59.374-48.503 107.878-107.878 107.878zM972.779 43.878c0-31.151-25.506-56.657-56.657-56.657h-808.245c-31.151 0-56.657 25.506-56.657 56.657v808.245c0 31.151 25.506 56.657 56.657 56.657h808.245c31.151 0 56.657-25.506 56.657-56.657v-808.245zM705.385 473.506h-167.879v167.879c0 14.216-11.499 25.715-25.715 25.715s-25.715-11.499-25.715-25.715v-167.879h-167.879c-14.216 0-25.715-11.499-25.715-25.506 0-14.216 11.499-25.715 25.715-25.715h167.879v-167.879c0-14.216 11.499-25.715 25.715-25.715s25.715 11.499 25.715 25.715v167.879h167.879c14.216 0 25.715 11.499 25.715 25.715s-11.499 25.506-25.715 25.506z" />
<glyph unicode="&#xe901;" glyph-name="alarm-clock" d="M605.558 480.578c-8.868 8.858-23.238 8.858-32.1-0.002l-42.612-42.612c-5.874 2.178-12.22 3.374-18.844 3.374-6.628 0-12.98-1.198-18.858-3.382l-87.586 87.59c-8.862 8.858-23.232 8.858-32.092 0-8.862-8.862-8.864-23.232 0-32.096l87.594-87.596c-2.178-5.87-3.372-12.216-3.372-18.836 0-29.95 24.366-54.318 54.318-54.318s54.318 24.366 54.318 54.318c0 6.624-1.196 12.974-3.376 18.852l42.612 42.612c8.86 8.862 8.86 23.232-0.002 32.096zM512.002 373.552c-7.428 0-13.47 6.044-13.47 13.47s6.044 13.47 13.47 13.47c7.428 0 13.47-6.044 13.47-13.47-0.002-7.428-6.044-13.47-13.47-13.47zM779.915 731.083l25.712 36.72 103.082-72.18c3.84-2.692 8.392-4.106 13.016-4.106 1.312 0 2.63 0.114 3.94 0.344 5.928 1.044 11.196 4.4 14.648 9.332 52.026 74.302 33.904 177.079-40.396 229.109-74.302 52.034-177.083 33.906-229.105-40.396-7.19-10.266-4.692-24.416 5.572-31.604l92.068-64.468-25.718-36.73c-66.976 41.908-146.067 66.176-230.731 66.176s-163.753-24.268-230.731-66.176l-25.72 36.73 92.068 64.468c10.266 7.19 12.762 21.338 5.574 31.604-52.026 74.304-154.803 92.426-229.107 40.398-74.302-52.026-92.426-154.803-40.4-229.107 3.452-4.932 8.722-8.288 14.648-9.332 1.31-0.234 2.628-0.344 3.94-0.344 4.624 0 9.178 1.416 13.016 4.106l103.082 72.18 25.712-36.72c-102.384-79.91-168.343-204.423-168.343-344.067 0-151.857 78.008-285.819 196.039-363.979l-35.94-51.328c-7.19-10.264-4.692-24.416 5.572-31.604 3.962-2.776 8.5-4.108 12.996-4.108 7.152 0 14.194 3.374 18.608 9.68l37.972 54.23c60.194-31.382 128.561-49.158 201.011-49.158 72.442 0 140.803 17.772 200.991 49.146l37.964-54.22c4.414-6.304 11.456-9.682 18.608-9.682 4.494 0 9.036 1.332 12.996 4.108 10.266 7.19 12.76 21.338 5.572 31.604l-35.93 51.314c118.042 78.158 196.057 212.125 196.057 363.991 0.006 139.649-65.952 264.163-168.341 344.069zM722.781 881.218c40.176 38.85 103.658 45.128 151.105 11.91 47.448-33.226 63.258-95.028 40.492-146.065l-191.597 134.155zM109.628 747.061c-22.768 51.038-6.958 112.842 40.492 146.065 20.75 14.528 44.56 21.502 68.154 21.502 30.354 0 60.346-11.55 82.95-33.412l-191.595-134.155zM512.002-3.856c-215.531 0-390.876 175.345-390.876 390.876s175.345 390.874 390.876 390.874 390.876-175.345 390.876-390.874-175.347-390.876-390.876-390.876zM512.002 707.861c-176.911 0-320.841-143.929-320.841-320.841s143.929-320.841 320.841-320.841 320.839 143.929 320.839 320.841-143.927 320.841-320.839 320.841zM725.281 205.835l-15.334 15.332c-8.862 8.86-23.232 8.86-32.092 0-8.862-8.862-8.862-23.232 0-32.092l15.332-15.334c-43.462-36.978-98.318-60.94-158.491-65.79v21.824c0 12.532-10.16 22.694-22.694 22.694s-22.694-10.162-22.694-22.694v-21.824c-60.176 4.85-115.030 28.812-158.493 65.79l15.334 15.334c8.862 8.862 8.862 23.232 0 32.092s-23.232 8.86-32.096 0l-15.334-15.334c-36.978 43.462-60.94 98.318-65.79 158.493h21.824c12.534 0 22.694 10.16 22.694 22.694s-10.16 22.694-22.694 22.694h-21.824c4.85 60.176 28.812 115.030 65.79 158.493l15.334-15.334c4.432-4.43 10.24-6.646 16.046-6.646s11.616 2.218 16.046 6.646c8.862 8.862 8.862 23.232 0 32.096l-15.334 15.334c43.462 36.978 98.318 60.94 158.493 65.79v-21.826c0-12.532 10.16-22.694 22.694-22.694s22.694 10.162 22.694 22.694v21.826c60.176-4.85 115.030-28.812 158.491-65.79l-15.332-15.334c-8.862-8.862-8.862-23.232 0-32.096 4.432-4.43 10.24-6.646 16.046-6.646s11.616 2.218 16.046 6.646l15.334 15.332c36.978-43.462 60.938-98.316 65.788-158.491h-21.824c-12.534 0-22.694-10.16-22.694-22.694s10.164-22.694 22.696-22.694h21.824c-4.846-60.176-28.808-115.030-65.786-158.491z" />
<glyph unicode="&#xe902;" glyph-name="arrow-point-to-right" d="M782.857 397.307l-440.304-440.29c-28.009-28.022-73.42-28.022-101.415 0-27.997 27.997-27.997 73.406 0 101.401l389.601 389.589-389.589 389.576c-27.997 28.009-27.997 73.413 0 101.41 27.997 28.009 73.406 28.009 101.415 0l440.304-440.297c13.999-14.005 20.99-32.342 20.99-50.687 0-18.354-7.005-36.704-21.001-50.703z" />
<glyph unicode="&#xe903;" glyph-name="atomic" d="M538.803 557.485c-72.682 0-131.816-59.134-131.816-131.816 0-72.686 59.134-131.818 131.816-131.818 72.688 0 131.822 59.134 131.822 131.818-0.002 72.682-59.134 131.816-131.822 131.816zM538.803 343.729c-45.182 0-81.938 36.758-81.938 81.94s36.758 81.938 81.938 81.938c45.182 0 81.942-36.758 81.942-81.938s-36.758-81.94-81.942-81.94zM1020.594 653.577c9.708 71.34-1.436 132.020-32.232 176.842 5.040 11.126 7.87 23.458 7.87 36.446 0 48.886-39.77 88.658-88.658 88.658-33.036 0-61.892-18.178-77.142-45.042-83.522 4.174-185.784-26.516-291.633-87.666-180.724 104.446-344.349 116.992-429.229 32.082-36.89-36.89-55.996-89.674-55.908-153.444-31.532-13.602-53.662-44.982-53.662-81.444 0-48.886 39.772-88.658 88.658-88.658 0.514 0 1.020 0.030 1.532 0.040 13.636-34.68 30.884-70.114 51.46-105.724-104.446-180.722-116.99-344.347-32.084-429.227 37.458-37.468 90.232-55.964 153.054-55.962 79.548 0.002 175.202 29.686 276.177 88.040 100.984-58.36 196.628-88.040 276.183-88.040 62.82 0 115.61 18.494 153.072 55.956 84.9 84.902 72.334 248.536-32.14 429.247 45.952 79.548 75.182 158.080 84.682 227.896zM907.574 905.644c21.382 0 38.78-17.398 38.78-38.78s-17.398-38.78-38.78-38.78-38.78 17.398-38.78 38.78 17.396 38.78 38.78 38.78zM819.132 860.978c3.042-46.15 41.534-82.774 88.442-82.774 16.982 0 32.858 4.808 46.354 13.12 18.462-33.52 24.43-78.216 17.244-131.026-7.712-56.686-30.166-120.386-65.316-186.048-40.072 60.776-88.23 119.448-143.624 174.846-55.392 55.392-114.082 103.562-174.89 143.668 85.144 45.656 165.552 69.336 231.79 68.214zM88.658 581.229c-21.382 0-38.78 17.396-38.78 38.78 0 21.382 17.398 38.78 38.78 38.78s38.78-17.398 38.78-38.78c0.002-21.382-17.396-38.78-38.78-38.78zM137.952 546.357c23.722 15.928 39.366 42.996 39.366 73.652 0 43.806-31.948 80.274-73.762 87.382 1.010 47.522 15.084 86.036 41.284 112.238 63.772 63.79 196.828 52.574 345.375-26.89-60.796-40.1-119.468-88.262-174.848-143.642-55.388-55.388-103.552-114.066-143.652-174.864-13.026 24.332-24.3 48.44-33.764 72.124zM144.834 31.708c-63.79 63.77-52.574 196.828 26.89 345.371 40.098-60.794 88.26-119.466 143.642-174.848 55.382-55.38 114.054-103.542 174.848-143.642-148.548-79.458-281.601-90.674-345.379-26.882zM350.637 237.503c-59.418 59.416-110.104 122.656-150.842 188.164 40.734 65.506 91.422 128.744 150.842 188.164 59.418 59.418 122.656 110.106 188.164 150.842 65.506-40.738 128.746-91.424 188.164-150.842 59.436-59.438 110.116-122.674 150.818-188.164-40.7-65.486-91.38-128.726-150.818-188.164-59.418-59.418-122.658-110.106-188.164-150.842-65.506 40.736-128.748 91.424-188.164 150.842zM932.782 31.706c-63.792-63.786-196.854-52.574-345.399 26.886 60.794 40.098 119.466 88.26 174.848 143.642 55.398 55.398 103.552 114.070 143.622 174.842 79.482-148.536 90.712-281.591 26.93-345.369z" />
<glyph unicode="&#xe904;" glyph-name="avatar" d="M508.289 408.24c1.060 0 2.121 0 3.393 0 0.424 0 0.848 0 1.272 0 0.636 0 1.484 0 2.121 0 62.131 1.060 112.388 22.902 149.497 64.676 81.64 92.031 68.069 249.797 66.584 264.853-5.301 113.024-58.738 167.097-102.845 192.331-32.868 18.873-71.25 29.051-114.084 29.899h-1.484c-0.212 0-0.636 0-0.848 0h-1.272c-23.538 0-69.765-3.817-114.084-29.051-44.531-25.234-98.816-79.308-104.118-193.18-1.484-15.056-15.056-172.823 66.584-264.853 36.897-41.774 87.153-63.616 149.285-64.676zM349.038 732.468c0 0.636 0.212 1.272 0.212 1.696 6.998 152.041 114.932 168.369 161.16 168.369h0.848c0.424 0 1.060 0 1.696 0 57.254-1.272 154.586-24.598 161.16-168.369 0-0.636 0-1.272 0.212-1.696 0.212-1.484 15.056-145.68-52.377-221.595-26.719-30.111-62.343-44.955-109.207-45.379-0.424 0-0.636 0-1.060 0v0c-0.424 0-0.636 0-1.060 0-46.651 0.424-82.488 15.268-108.995 45.379-67.221 75.491-52.801 220.322-52.589 221.595zM947.449 146.568c0 0.212 0 0.424 0 0.636 0 1.696-0.212 3.393-0.212 5.301-1.272 41.986-4.029 140.166-96.060 171.55-0.636 0.212-1.484 0.424-2.121 0.636-95.636 24.386-175.155 79.52-176.003 80.156-12.935 9.118-30.748 5.937-39.866-6.998s-5.937-30.748 6.998-39.866c3.605-2.545 88.002-61.283 193.604-88.426 49.408-17.6 54.922-70.401 56.406-118.749 0-1.908 0-3.605 0.212-5.301 0.212-19.085-1.060-48.56-4.453-65.524-34.352-19.509-169.006-86.941-373.848-86.941-203.994 0-339.496 67.645-374.060 87.153-3.393 16.964-4.877 46.439-4.453 65.524 0 1.696 0.212 3.393 0.212 5.301 1.484 48.348 6.998 101.149 56.406 118.749 105.602 27.143 189.999 86.093 193.604 88.426 12.935 9.118 16.116 26.931 6.998 39.866s-26.931 16.116-39.866 6.998c-0.848-0.636-79.944-55.77-176.003-80.156-0.848-0.212-1.484-0.424-2.121-0.636-92.031-31.596-94.787-129.776-96.060-171.55 0-1.908 0-3.605-0.212-5.301 0-0.212 0-0.424 0-0.636-0.212-11.027-0.424-67.645 10.815-96.060 2.121-5.513 5.937-10.179 11.027-13.359 6.362-4.241 158.827-101.361 413.926-101.361s407.564 97.332 413.926 101.361c4.877 3.181 8.906 7.846 11.027 13.359 10.603 28.203 10.391 84.821 10.179 95.848z" />
<glyph unicode="&#xe905;" glyph-name="badge" d="M1017.514 395.141l-16.647 40.428c-3.243 7.999-3.243 16.863 0 24.862l16.647 40.428c13.188 31.564 5.837 67.668-18.16 91.881l-31.131 30.699c-6.053 6.053-9.512 14.269-9.512 22.916v43.671c0 34.158-20.322 64.857-52.102 77.829l-40.428 16.647c-7.999 3.243-14.269 9.512-17.511 17.511l-16.647 40.644c-13.188 31.564-43.671 52.102-77.829 52.102h-43.671c-8.648 0-16.863 3.459-22.916 9.512l-30.915 30.915c-15.998 15.998-37.185 24.646-59.669 24.646-11.026 0-22.051-2.162-32.212-6.486l-40.428-16.647c-7.999-3.243-16.863-3.243-24.862 0l-40.428 16.647c-10.377 4.324-21.187 6.486-32.212 6.486-22.484 0-43.671-8.864-59.669-24.646l-30.915-30.915c-6.053-6.053-14.269-9.512-22.916-9.512h-43.671c-34.158 0-64.857-20.538-77.829-52.102l-16.647-40.428c-3.243-7.999-9.512-14.269-17.511-17.511l-40.428-16.647c-31.564-13.188-52.102-43.671-52.102-77.829v-43.671c0-8.648-3.459-16.863-9.512-22.916l-30.915-30.915c-24.213-24.213-31.348-60.317-18.376-91.881l16.647-40.428c3.243-7.999 3.243-16.863 0-24.862l-16.647-40.428c-12.971-31.564-5.837-67.668 18.16-91.881l31.348-30.915c6.053-6.053 9.512-14.269 9.512-22.916v-43.671c0-34.158 20.322-64.857 52.102-77.829l40.428-16.647c7.999-3.243 14.269-9.512 17.511-17.511l16.647-40.428c13.188-31.564 43.671-52.102 77.829-52.102h43.671c8.648 0 16.863-3.459 22.916-9.512l30.915-30.915c15.998-15.998 37.185-24.646 59.669-24.646 11.026 0 22.051 2.162 32.212 6.486l40.428 16.647c7.999 3.243 16.863 3.243 24.862 0l40.428-16.647c10.377-4.324 21.187-6.486 32.212-6.486 22.484 0 43.671 8.864 59.669 24.646l30.915 30.915c6.053 6.053 14.269 9.512 22.916 9.512h43.671c34.158 0 64.857 20.538 77.829 52.102l16.647 40.428c3.243 7.999 9.512 14.269 17.511 17.511l40.428 16.647c31.564 13.188 52.102 43.671 52.102 77.829v43.671c0 8.648 3.459 16.863 9.512 22.916l30.915 30.915c23.997 24.213 31.131 60.317 18.16 91.881zM962.602 340.013l-30.915-30.915c-15.998-15.998-24.646-36.969-24.646-59.669v-43.671c0-13.188-7.783-24.862-20.106-29.834l-40.428-16.647c-20.754-8.648-36.969-24.862-45.616-45.616l-16.647-40.428c-4.972-12.107-16.863-20.106-29.834-20.106h-43.671c-22.484 0-43.671-8.864-59.669-24.646l-30.915-30.915c-6.053-6.053-14.269-9.512-22.916-9.512-4.324 0-8.431 0.865-12.323 2.378l-40.428 16.647c-10.377 4.324-21.187 6.486-32.212 6.486s-22.051-2.162-32.212-6.486l-40.428-16.647c-3.891-1.73-8.215-2.378-12.323-2.378-8.648 0-16.863 3.459-22.916 9.512l-30.915 30.915c-15.998 15.998-36.969 24.646-59.669 24.646h-43.671c-13.188 0-24.862 7.783-29.834 20.106l-16.647 40.428c-8.648 20.754-24.862 36.969-45.616 45.616l-40.428 16.647c-12.107 4.972-20.106 16.863-20.106 29.834v43.671c0 22.484-8.864 43.671-24.646 59.669l-30.915 30.915c-9.296 9.296-12.107 23.132-6.918 35.239l16.647 40.428c8.648 20.754 8.648 43.671 0 64.425l-16.647 40.428c-4.972 12.107-2.378 25.943 7.134 35.239l30.915 30.915c15.998 15.998 24.646 37.185 24.646 59.669v43.671c0 13.188 7.783 24.862 20.106 29.834l40.428 16.647c20.754 8.648 36.969 24.862 45.616 45.616l16.647 40.428c4.972 12.107 16.863 20.106 29.834 20.106h43.671c22.484 0 43.671 8.864 59.669 24.646l30.915 30.915c6.053 6.053 14.269 9.512 22.916 9.512 4.324 0 8.431-0.865 12.323-2.378l40.428-16.647c10.377-4.324 21.187-6.486 32.212-6.486s22.051 2.162 32.212 6.486l40.428 16.647c3.891 1.73 8.215 2.378 12.323 2.378 8.648 0 16.863-3.459 22.916-9.512l30.915-30.915c15.998-15.998 37.185-24.646 59.669-24.646h43.238c13.188 0 24.862-7.783 29.834-20.106l16.647-40.428c8.648-20.754 24.862-36.969 45.616-45.616l40.428-16.647c12.107-4.972 20.106-16.863 20.106-29.834v-43.671c0-22.484 8.864-43.671 24.646-59.669l30.915-30.915c9.296-9.296 12.107-23.132 6.918-35.239l-16.647-40.428c-8.648-20.754-8.648-43.671 0-64.425l16.647-40.428c5.405-12.107 2.594-25.943-6.702-35.239zM549.894 474.267h-75.451c-31.348 0-56.858 25.51-56.858 56.858s25.51 56.858 56.858 56.858h133.173c14.269 0 25.943 11.674 25.943 25.943s-11.674 25.943-25.943 25.943h-69.613v52.967c0 14.269-11.674 25.943-25.943 25.943s-25.943-11.674-25.943-25.943v-52.967h-11.89c-59.885 0-108.744-48.643-108.744-108.744s48.859-108.744 108.744-108.744h75.451c31.348 0 56.858-25.51 56.858-56.858s-25.51-56.858-56.858-56.858h-135.552c-14.269 0-25.943-11.674-25.943-25.943s11.674-25.943 25.943-25.943h71.991v-54.048c0-14.269 11.674-25.943 25.943-25.943s25.943 11.674 25.943 25.943v54.048h12.539c0.216 0 0.432 0 0.649 0 59.236 0.865 107.231 49.291 107.231 108.744 0 60.101-48.643 108.744-108.528 108.744z" />
<glyph unicode="&#xe906;" glyph-name="balloons" d="M861.090 566.69c0 100.072-51.2 174.546-132.654 200.146-13.964 2.328-25.6-4.654-30.254-16.292-4.654-11.636 4.654-25.6 16.29-27.928 62.836-18.618 100.072-76.8 100.072-153.6 0-109.382-67.49-211.782-139.636-211.782-18.618 0-37.236 6.982-55.854 20.946-9.31 6.982-25.6 4.654-32.582-4.654s-4.654-25.6 4.654-32.582c6.982-4.654 13.964-9.31 20.946-13.964-20.946-23.272-30.254-53.528-30.254-86.11 0-13.964 9.31-23.272 23.272-23.272h46.546c-2.328-34.91-23.272-67.49-55.854-83.782-11.636-4.654-16.29-18.618-9.31-30.254 4.654-9.31 11.636-13.964 20.946-13.964 4.654 0 6.982 0 9.31 2.328 48.872 23.272 79.128 72.146 81.454 125.672h46.546c13.964 0 23.272 9.31 23.272 23.272 0 32.582-11.636 60.51-30.254 86.11 74.472 37.238 123.344 141.966 123.344 239.71zM633.018 261.818c4.654 13.964 11.636 27.928 23.272 39.564l6.982 6.982h25.6l6.982-6.982c11.636-11.636 18.618-25.6 23.272-39.564h-86.108zM674.908 680.728c0 162.908-107.054 279.272-255.998 279.272s-256-116.364-256-279.272c0-107.054 48.872-216.436 125.672-276.946 9.31-6.982 25.6-6.982 32.582 4.654 6.982 9.31 6.982 25.6-4.654 32.582-65.164 51.2-107.054 144.29-107.054 239.71 0 134.982 88.436 232.728 209.454 232.728s209.454-97.746 209.454-232.728c0-146.618-100.072-279.272-209.454-279.272h-23.272c-6.982 0-11.636-2.328-16.29-6.982l-13.964-13.964c-25.6-25.6-39.564-58.182-39.564-95.418 0-13.964 9.31-23.272 23.272-23.272h46.546v-18.618c0-53.528 23.272-104.728 67.49-139.636 32.582-25.6 48.872-62.836 48.872-102.4v-41.89c0-13.964 9.31-23.272 23.272-23.272s23.272 9.31 23.272 23.272v41.89c0 53.528-23.272 104.728-67.49 139.636-32.582 25.6-48.872 62.836-48.872 102.4v18.618h46.546c13.964 0 23.272 9.31 23.272 23.272 0 30.254-9.31 58.182-27.928 81.454 107.056 39.564 190.836 169.89 190.836 314.182zM377.018 308.364c4.654 13.964 11.636 27.928 23.272 39.564l6.982 6.982h25.6l6.982-6.982c11.636-11.636 18.618-25.6 23.272-39.564h-86.108zM418.91 866.91c-69.818 0-128-41.89-151.272-109.382-4.654-11.636 2.328-25.6 13.964-30.254 2.328 0 4.654-2.328 6.982-2.328 9.31 0 18.618 6.982 20.946 16.29 18.618 48.872 60.51 79.128 109.382 79.128 13.964 0 23.272 9.31 23.272 23.272s-9.312 23.274-23.274 23.274z" />
<glyph unicode="&#xe907;" glyph-name="bar-chart" d="M999.808 46.786h-975.616c-13.362 0-24.192-10.83-24.192-24.192 0-13.358 10.83-24.192 24.192-24.192h975.616c13.358 0 24.192 10.834 24.192 24.192 0 13.36-10.83 24.192-24.192 24.192zM936.74 783.39h-169.896c-13.358 0-24.192-10.834-24.192-24.192v-164.48h-121.514v278.688c0 13.358-10.834 24.192-24.192 24.192h-169.9c-13.358 0-24.192-10.834-24.192-24.192v-457.764h-121.514v205.638c0 13.362-10.834 24.192-24.192 24.192h-169.896c-13.362 0-24.192-10.83-24.192-24.192v-463.126c0-13.362 10.834-24.192 24.192-24.192h849.486c13.362 0 24.192 10.834 24.192 24.192v601.044c0.002 13.358-10.828 24.192-24.19 24.192zM232.958 182.346h-121.514v414.742h121.514v-414.742zM402.858 182.346h-121.514v184.912h121.514v-184.912zM572.756 570.526v-388.18h-121.516v666.868h121.516v-278.688zM742.656 182.346h-121.514v363.988h121.514v-363.988zM912.552 182.346h-121.512v552.66h121.514v-552.66z" />
<glyph unicode="&#xe908;" glyph-name="battery" d="M979.314 567.060h-52.458v80.048c0 36.96-30.070 67.030-67.030 67.030h-792.796c-36.96 0-67.030-30.068-67.030-67.028v-398.218c0-36.96 30.070-67.030 67.030-67.030h792.798c36.96 0 67.030 30.070 67.030 67.030v80.048h52.458c24.64 0 44.686 20.046 44.686 44.686v148.75c-0.002 24.638-20.048 44.684-44.688 44.684zM226.754 226.548h-159.724c-12.32 0-22.344 10.024-22.344 22.344v398.218c0 12.32 10.024 22.344 22.344 22.344h159.724v-442.906zM882.17 248.89c0-12.32-10.024-22.344-22.344-22.344h-588.386v442.906h588.388c12.32 0 22.344-10.024 22.344-22.344v-398.218zM979.314 373.626h-52.458v148.75h52.458l0.030-148.75c-0.004 0.002-0.012 0-0.030 0zM727.444 477.548c-6.6 10.42-20.404 13.522-30.832 6.918l-97.466-61.742v91.162c0 8.146-4.432 15.646-11.572 19.574-7.134 3.926-15.846 3.658-22.73-0.7l-131.766-83.474c-10.424-6.604-13.522-20.408-6.918-30.832 6.6-10.42 20.404-13.522 30.832-6.918l97.466 61.746v-91.162c0-8.146 4.432-15.646 11.572-19.574 3.36-1.85 7.070-2.768 10.772-2.768 4.16 0 8.316 1.162 11.958 3.468l131.766 83.472c10.424 6.604 13.524 20.406 6.918 30.83z" />
<glyph unicode="&#xe909;" glyph-name="battery-1" d="M979.314 567.062h-52.458v80.046c0 36.96-30.070 67.030-67.030 67.030h-792.796c-36.96 0-67.030-30.070-67.030-67.028v-398.218c0-36.96 30.070-67.030 67.030-67.030h792.798c36.96 0 67.030 30.070 67.030 67.030v80.046h52.458c24.64 0 44.686 20.046 44.686 44.686v148.752c-0.002 24.642-20.050 44.686-44.688 44.686zM705.482 226.548h-638.452c-12.32 0.002-22.344 10.026-22.344 22.346v398.216c0 12.32 10.024 22.344 22.344 22.344h638.452v-442.906zM859.828 226.55h-109.66v442.902h109.658c12.32 0 22.344-10.024 22.344-22.344v-398.218h0.002c-0.002-12.316-10.024-22.34-22.344-22.34zM979.314 373.626h-52.458v148.752h52.458l0.030-148.748c-0.004-0.002-0.012-0.004-0.030-0.004z" />
<glyph unicode="&#xe90a;" glyph-name="bell" d="M876.42 129.728l-49.954 93.756v231.538c0 143.13-96.124 264.222-227.206 302.138v115.576c0.002 48.118-39.142 87.264-87.26 87.264s-87.262-39.146-87.262-87.264v-115.578c-131.078-37.918-227.206-159.008-227.206-302.138v-231.536l-49.952-93.756c-9.62-18.054-9.076-39.304 1.452-56.846 10.53-17.538 29.028-28.010 49.486-28.010h198.316c3.378-60.602 53.732-108.872 115.166-108.872 61.432 0 111.788 48.27 115.166 108.872h198.318c20.456 0 38.954 10.472 49.486 28.010 10.524 17.542 11.068 38.792 1.45 56.846zM470.91 872.736c0 22.66 18.432 41.092 41.088 41.092s41.088-18.432 41.088-41.092v-105.936c-13.452 1.764-27.166 2.684-41.088 2.684-13.926 0-27.638-0.922-41.088-2.684v105.936zM243.706 455.022c0 147.936 120.356 268.294 268.294 268.294s268.294-120.358 268.294-268.294v-212.434h-536.588v212.434zM512-17.828c-35.962 0-65.59 27.584-68.87 62.7h137.744c-3.284-35.116-32.916-62.7-68.874-62.7zM835.38 96.648c-1.012-1.686-3.998-5.604-9.896-5.604h-626.966c-5.896 0-8.886 3.918-9.896 5.604-1.012 1.682-3.064 6.164-0.29 11.37l47.098 88.398h553.144l47.098-88.398c2.77-5.206 0.716-9.686-0.292-11.37zM512 661.774c-114.004 0-206.756-92.752-206.756-206.756 0-12.748 10.336-23.086 23.086-23.086s23.086 10.338 23.086 23.086c0 88.544 72.038 160.584 160.584 160.584 12.75 0 23.086 10.338 23.086 23.086 0 12.752-10.336 23.086-23.086 23.086z" />
<glyph unicode="&#xe90b;" glyph-name="bills" d="M170.423 390.114c-13.767 0-25.032-11.264-25.032-25.032s11.264-25.032 25.032-25.032h96.163c13.767 0 25.032 11.264 25.032 25.032s-11.264 25.032-25.032 25.032h-96.163zM591.997 340.051h96.163c13.767 0 25.032 11.264 25.032 25.032s-11.264 25.032-25.032 25.032h-96.163c-13.767 0-25.032-11.264-25.032-25.032s11.264-25.032 25.032-25.032zM956.206 796.878h-728.002c-37.339 0-67.794-30.455-67.794-67.794v-98.249h-110.348c-27.535 0-50.063-22.528-50.063-50.063v-431.586c0-27.535 22.528-50.063 50.063-50.063h763.463c27.535 0 50.063 22.528 50.063 50.063v115.98h92.617c37.339 0 67.794 30.455 67.794 67.794v396.333c-0.209 37.339-30.455 67.585-67.794 67.585zM673.349 580.772c5.632-75.095 65.291-135.171 140.177-141.637v-149.772c-75.095-5.632-135.171-65.291-141.637-140.177h-481.649c-5.632 75.095-65.291 135.171-140.177 141.637v149.772c75.095 5.632 135.171 65.291 141.637 140.177h481.649zM723.413 580.772h89.905v-91.365c-47.143 6.258-84.482 44.014-89.905 91.365zM141.22 580.772c-6.049-47.143-43.805-84.69-91.365-89.905v89.905h91.365zM50.063 240.551c47.143-6.049 84.69-43.805 89.905-91.365h-89.905v91.365zM722.161 149.394c6.049 47.143 43.805 84.69 91.365 89.905v-89.905h-91.365zM973.728 332.959c0-9.804-7.927-17.731-17.731-17.731h-92.617v265.543c0 27.535-22.528 50.063-50.063 50.063h-603.052v98.249c0 9.804 7.927 17.731 17.731 17.731h728.002c9.804 0 17.731-7.927 17.731-17.731v-396.125zM410.309 340.26h42.762c12.099 0 21.903-9.804 21.903-21.903s-9.804-21.903-21.903-21.903h-76.763c-13.767 0-25.032-11.264-25.032-25.032s11.264-25.032 25.032-25.032h30.455v-20.234c0-13.767 11.264-25.032 25.032-25.032s25.032 11.264 25.032 25.032v20.234c37.965 1.877 68.211 33.375 68.211 71.757 0 39.633-32.332 71.966-71.966 71.966h-42.762c-12.099 0-21.903 9.804-21.903 21.903s9.804 21.903 21.903 21.903h75.303c13.767 0 25.032 11.264 25.032 25.032s-11.264 25.032-25.032 25.032h-28.995v19.608c0 13.767-11.264 25.032-25.032 25.032s-25.032-11.264-25.032-25.032v-19.817c-37.965-1.877-68.211-33.375-68.211-71.757 0.209-39.425 32.332-71.757 71.966-71.757z" />
<glyph unicode="&#xe90c;" glyph-name="black-back-closed-envelope-shape" d="M932.564 45.713c23.018 0 42.963 7.6 59.918 22.607l-290.116 290.127c-6.961-4.984-13.707-9.831-20.080-14.44-21.711-15.996-39.332-28.478-52.863-37.422-13.529-8.965-31.529-18.102-53.998-27.431-22.484-9.34-43.431-13.996-62.863-13.996h-1.138c-19.433 0-40.38 4.653-62.863 13.996-22.482 9.329-40.483 18.467-53.998 27.431-13.529 8.944-31.14 21.425-52.863 37.422-6.053 4.438-12.767 9.307-20.025 14.518l-290.171-290.205c16.953-15.007 36.911-22.607 59.927-22.607h841.132zM57.72 541.14c-21.709 14.473-40.96 31.049-57.72 49.721v-441.404l255.707 255.707c-51.156 35.714-117.068 80.987-197.986 135.977zM966.858 541.14c-77.833-52.68-143.984-98.032-198.462-136.079l255.604-255.616v441.415c-16.388-18.296-35.433-34.861-57.142-49.721zM932.564 850.287h-841.13c-29.345 0-51.905-9.909-67.71-29.707-15.817-19.807-23.713-44.578-23.713-74.285 0-23.996 10.478-49.996 31.425-78.007 20.947-28 43.236-49.994 66.856-65.992 12.949-9.149 51.998-36.296 117.148-81.432 35.169-24.371 65.754-45.614 92.036-63.945 22.403-15.609 41.723-29.127 57.674-40.345 1.831-1.285 4.711-3.345 8.533-6.077 4.118-2.958 9.329-6.711 15.758-11.354 12.38-8.954 22.665-16.191 30.856-21.72 8.18-5.531 18.091-11.709 29.718-18.569 11.618-6.851 22.575-12.003 32.86-15.429 10.287-3.425 19.809-5.142 28.569-5.142h1.138c8.758 0 18.283 1.718 28.571 5.142 10.283 3.426 21.231 8.567 32.858 15.429 11.616 6.86 21.514 13.051 29.72 18.569 8.191 5.529 18.476 12.765 30.858 21.72 6.416 4.642 11.627 8.398 15.745 11.344 3.824 2.744 6.702 4.791 8.545 6.087 12.426 8.647 31.791 22.109 57.826 40.187 47.374 32.916 117.144 81.363 209.602 145.535 27.807 19.422 51.039 42.86 69.71 70.281 18.638 27.42 27.982 56.183 27.982 86.279 0 25.145-9.060 46.66-27.14 64.581-18.1 17.898-39.534 26.851-64.296 26.851z" />
<glyph unicode="&#xe90d;" glyph-name="bluetooth" d="M698.598 300.836l-175.704 149.806 175.238 144.37c6.596 5.43 10.394 13.446 10.426 21.99 0.030 8.544-3.71 16.588-10.262 22.064l-184.928 154.638c-8.622 7.212-20.302 8.742-30.486 3.98-10.182-4.756-16.51-14.694-16.51-25.934v-272.914l-118.46 101c-9.254 7.89-23.154 6.782-31.044-2.468-7.89-9.256-6.784-23.156 2.47-31.046l134.994-115.1-134.71-110.98c-9.388-7.734-10.728-21.61-2.994-30.998 7.734-9.384 21.612-10.724 31-2.992l118.746 97.828v-279.828c0-11.24 6.324-21.178 16.51-25.934 3.926-1.836 8.078-2.736 12.192-2.736 6.55 0 13.002 2.284 18.298 6.712l185.024 154.804c6.478 5.422 10.216 13.378 10.256 21.826 0.036 8.446-3.628 16.434-10.056 21.912zM510.416 738.76l145.378-121.564-145.378-119.77v241.334zM510.416 157.248v246.158l145.718-124.24-145.718-121.918zM874.038 810.038c-96.704 96.702-225.278 149.962-362.038 149.962s-265.334-53.26-362.038-149.962c-96.706-96.704-149.962-225.278-149.962-362.038s53.256-265.334 149.962-362.038c96.704-96.702 225.278-149.962 362.038-149.962s265.334 53.26 362.038 149.962c96.706 96.704 149.962 225.276 149.962 362.038s-53.256 265.334-149.962 362.038zM512-19.958c-258.032 0-467.958 209.926-467.958 467.958s209.926 467.958 467.958 467.958 467.958-209.926 467.958-467.958-209.926-467.958-467.958-467.958z" />
<glyph unicode="&#xe90e;" glyph-name="book" d="M860.952 960h-593.683c-70.016 0-126.976-56.964-126.976-126.98v-770.042c0-70.018 56.962-126.98 126.98-126.98h593.681c12.568 0 22.758 10.188 22.758 22.758 0 0.482-0.044 0.954-0.072 1.43 0.030 0.476 0.072 0.946 0.072 1.43v975.626c-0.002 12.57-10.194 22.758-22.76 22.758zM244.512-15.23c-33.876 9.878-58.704 41.186-58.704 78.206v672.735c16.532-13.862 36.634-23.578 58.704-27.59v-723.351zM267.269 751.558c-44.918 0-81.462 36.546-81.462 81.462s36.546 81.462 81.462 81.462h496.377c-18.502-22.066-29.672-50.48-29.672-81.462s11.17-59.396 29.672-81.462h-496.377zM690.269 706.040v-133.524l-27.176 20.236c-8.070 6.010-19.128 6.008-27.198-0.010l-27.448-20.468v133.766h81.822zM838.194-18.484h-548.167v724.523h272.905v-179.126c0-8.61 4.858-16.482 12.554-20.342 3.228-1.62 6.722-2.416 10.202-2.416 4.816 0 9.602 1.528 13.61 4.516l50.216 37.448 49.924-37.176c6.904-5.142 16.118-5.946 23.806-2.084 7.692 3.862 12.546 11.732 12.546 20.338v178.844h102.404v-724.525zM838.194 754.814c-33.876 9.876-58.706 41.186-58.706 78.208s24.83 68.328 58.704 78.204v-156.412zM675.747 415.087h-223.276c-12.57 0-22.758-10.188-22.758-22.758 0-12.572 10.192-22.758 22.758-22.758h223.276c12.568 0 22.758 10.188 22.758 22.758s-10.192 22.758-22.758 22.758zM739.347 272.469h-350.477c-12.57 0-22.758-10.188-22.758-22.758s10.188-22.758 22.758-22.758h350.477c12.568 0 22.758 10.188 22.758 22.758s-10.188 22.758-22.758 22.758z" />
<glyph unicode="&#xe90f;" glyph-name="bookmark" d="M1024-28.659v952.899c0 19.563-15.987 35.55-35.55 35.55h-135.257c-14.304 0-25.873-11.569-25.873-25.873s11.569-25.663 25.873-25.663h119.27v-920.925h-920.925v920.925h120.322c14.304 0 25.873 11.569 25.873 25.663s-11.569 25.873-25.873 25.873h-136.309c-19.563 0-35.55-15.987-35.55-35.55v-952.688c0-19.563 15.987-35.55 35.55-35.55h952.688c19.773-0.21 35.76 15.776 35.76 35.339zM343.298 133.523c12.2 0 23.77 4.628 33.025 12.832l133.784 120.743 133.784-120.743c9.045-8.204 20.825-12.832 33.025-12.832 27.346 0 49.643 22.297 49.643 49.643v750.96c0 14.304-11.569 25.873-25.873 25.873h-381.37c-14.304 0-25.873-11.569-25.873-25.873v-750.96c0.21-27.556 22.297-49.643 49.854-49.643zM345.191 908.253h330.042v-720.669l-131.891 118.849c-18.301 16.408-48.171 16.408-66.261 0l-131.891-118.849 0.002 720.669z" />
<glyph unicode="&#xe910;" glyph-name="box" d="M978.67 855.158h-933.34c-24.994 0-45.33-20.334-45.33-45.33v-101.516c0-24.996 20.336-45.33 45.33-45.33h9.838v-576.812c0-24.996 20.336-45.33 45.33-45.33h823c24.996 0 45.33 20.336 45.33 45.33v576.812h9.838c24.996 0 45.33 20.336 45.33 45.33v101.516c0.004 24.996-20.332 45.33-45.326 45.33zM923.5 86.17h-823v576.812h823.002l0.028-576.808c0-0.002-0.010-0.004-0.030-0.004zM978.67 708.314h-933.34v101.514h933.34l0.030-101.512c0-0.002-0.010-0.002-0.030-0.002zM587.55 364.726v49.354c0 41.66-33.892 75.552-75.55 75.552s-75.552-33.892-75.552-75.552v-49.354c-28.812-6.968-50.282-32.958-50.282-63.88v-77.9c0-36.242 29.486-65.73 65.73-65.73h120.21c36.244 0 65.73 29.488 65.73 65.73v77.9c-0.002 30.924-21.472 56.912-50.286 63.88zM477.246 414.080c0 19.164 15.59 34.754 34.754 34.754s34.752-15.592 34.752-34.754v-47.504h-69.508v47.504zM597.038 222.948c0-13.748-11.186-24.932-24.932-24.932h-120.21c-13.746 0-24.932 11.182-24.932 24.932v77.9c0 13.746 11.186 24.932 24.932 24.932h120.21c13.746 0 24.932-11.186 24.932-24.932v-77.9zM381.212 594.624h-197.176c-11.266 0-20.398-9.132-20.398-20.398s9.132-20.398 20.398-20.398h197.178c11.264 0 20.396 9.134 20.396 20.398 0.002 11.266-9.13 20.398-20.398 20.398zM282.624 505.384h-98.588c-11.266 0-20.398-9.132-20.398-20.398s9.132-20.398 20.398-20.398h98.586c11.266 0 20.398 9.132 20.398 20.398s-9.13 20.398-20.396 20.398z" />
<glyph unicode="&#xe911;" glyph-name="box-1" d="M997.58 695.014l-200.986 254.904c-5.041 6.356-12.493 10.082-20.603 10.082h-527.781c-8.11 0-15.781-3.726-20.603-10.082l-200.986-254.904c-3.726-4.603-5.699-10.301-5.699-16.219v-716.493c0-14.466 11.836-26.301 26.301-26.301h929.534c14.466 0 26.301 11.836 26.301 26.301v716.493c0.219 5.918-1.753 11.616-5.479 16.219zM926.128 700.712h-387.726v206.685h224.877l162.849-206.685zM260.923 907.397h224.877v-206.685h-387.726l162.849 206.685zM73.525-11.397v659.507h876.932v-659.507h-876.932z" />
<glyph unicode="&#xe912;" glyph-name="box-2" d="M997.58 695.014l-200.986 254.904c-5.041 6.356-12.493 10.082-20.603 10.082h-527.781c-8.11 0-15.781-3.726-20.603-10.082l-200.986-254.904c-3.726-4.603-5.699-10.301-5.699-16.219v-716.493c0-14.466 11.836-26.301 26.301-26.301h929.534c14.466 0 26.301 11.836 26.301 26.301v716.493c0.219 5.918-1.753 11.616-5.479 16.219zM926.128 700.712h-387.726v206.685h224.877l162.849-206.685zM260.923 907.397h224.877v-206.685h-387.726l162.849 206.685zM73.525-11.397v659.507h876.932v-659.507h-876.932zM530.95 514.849v0c-0.658 0.658-1.315 1.315-1.973 1.753-0.438 0.219-0.658 0.438-1.096 0.658s-0.658 0.438-1.096 0.877c-0.438 0.219-0.877 0.438-1.315 0.658s-0.658 0.438-1.096 0.658-0.877 0.438-1.315 0.658-0.658 0.438-1.096 0.438-0.877 0.219-1.315 0.438c-0.438 0.219-0.877 0.219-1.096 0.438-0.438 0.219-0.877 0.219-1.315 0.219s-0.877 0.219-1.315 0.219-0.877 0.219-1.534 0.219c-0.438 0-0.658 0.219-1.096 0.219-1.753 0.219-3.507 0.219-5.26 0-0.438 0-0.658 0-1.096-0.219-0.438 0-0.877-0.219-1.534-0.219-0.438 0-0.877-0.219-1.315-0.219s-0.877-0.219-1.315-0.219c-0.438-0.219-0.877-0.219-1.096-0.438-0.438-0.219-0.877-0.219-1.315-0.438s-0.658-0.438-1.096-0.438c-0.438-0.219-0.877-0.438-1.315-0.658s-0.658-0.438-1.096-0.658-0.877-0.438-1.315-0.658c-0.438-0.219-0.658-0.438-1.096-0.877-0.438-0.219-0.658-0.438-1.096-0.658-0.658-0.438-1.315-1.096-1.753-1.534 0 0 0 0-0.219-0.219l-124.932-124.932c-10.301-10.301-10.301-26.959 0-37.26 5.041-5.041 11.836-7.671 18.63-7.671s13.37 2.63 18.63 7.671l80 80v-299.616c0-14.466 11.836-26.301 26.301-26.301s26.301 11.836 26.301 26.301v299.616l79.562-79.562c10.301-10.301 26.959-10.301 37.26 0s10.301 26.959 0 37.26l-123.178 124.493z" />
<glyph unicode="&#xe913;" glyph-name="box-3" d="M997.58 695.014l-200.986 254.904c-5.041 6.356-12.493 10.082-20.603 10.082h-527.781c-8.11 0-15.562-3.726-20.603-10.082l-200.986-254.904c-3.726-4.603-5.699-10.301-5.699-16.219v-716.493c0-14.466 11.836-26.301 26.301-26.301h929.534c14.466 0 26.301 11.836 26.301 26.301v716.493c0.219 5.918-1.753 11.616-5.479 16.219zM926.128 700.712h-387.726v206.685h224.877l162.849-206.685zM260.923 907.397h224.877v-206.685h-387.726l162.849 206.685zM73.525-11.397v659.507h876.932v-659.507h-876.932zM618.183 276.603l-80-80v299.616c0 14.466-11.836 26.301-26.301 26.301s-26.301-11.836-26.301-26.301v-299.616l-79.562 79.562c-10.301 10.301-26.959 10.301-37.26 0s-10.301-26.959 0-37.26l124.493-124.493c0.658-0.658 1.096-1.096 1.753-1.753 0.219-0.219 0.438-0.219 0.658-0.438 0.438-0.438 1.096-0.877 1.534-1.096 0.219 0 0.219-0.219 0.438-0.219 0.658-0.438 1.096-0.658 1.753-1.096 0.219 0 0.219 0 0.438-0.219 0.658-0.438 1.315-0.658 1.973-0.877h0.219c0.658-0.219 1.534-0.658 2.192-0.877h0.219c0.658-0.219 1.534-0.438 2.192-0.658 0.219 0 0.438 0 0.658 0 0.658 0 1.315-0.219 1.973-0.219 0.877 0 1.753-0.219 2.63-0.219s1.753 0 2.63 0.219c0.658 0 1.315 0.219 1.973 0.219 0.219 0 0.438 0 0.658 0 0.877 0.219 1.534 0.438 2.192 0.658h0.219c0.658 0.219 1.534 0.438 2.192 0.877h0.219c0.658 0.219 1.315 0.658 1.973 0.877 0 0 0.219 0 0.219 0.219 0.658 0.219 1.096 0.658 1.753 1.096 0.219 0 0.219 0.219 0.438 0.219 0.438 0.438 1.096 0.658 1.534 1.096 0.219 0.219 0.438 0.219 0.438 0.438 0.658 0.438 1.315 1.096 1.753 1.753v0l124.932 124.932c10.301 10.301 10.301 26.959 0 37.26-9.863 10.301-26.521 10.301-36.822 0z" />
<glyph unicode="&#xe914;" glyph-name="box-4" d="M997.58 695.014l-200.986 254.904c-5.041 6.356-12.493 10.082-20.603 10.082h-527.781c-8.11 0-15.562-3.726-20.603-10.082l-200.986-254.904c-3.726-4.603-5.699-10.301-5.699-16.219v-716.493c0-14.466 11.836-26.301 26.301-26.301h929.534c14.466 0 26.301 11.836 26.301 26.301v716.493c0.219 5.918-1.753 11.616-5.479 16.219zM926.128 700.712h-387.726v206.685h224.877l162.849-206.685zM260.923 907.397h224.877v-206.685h-387.726l162.849 206.685zM73.525-11.397v659.507h876.932v-659.507h-876.932zM664.21 337.096h-125.808v125.808c0 14.466-11.836 26.301-26.301 26.301s-26.301-11.836-26.301-26.301v-125.808h-125.808c-14.466 0-26.301-11.836-26.301-26.301s11.836-26.301 26.301-26.301h125.808v-125.808c0-14.466 11.836-26.301 26.301-26.301s26.301 11.836 26.301 26.301v125.808h125.808c14.466 0 26.301 11.836 26.301 26.301s-11.616 26.301-26.301 26.301z" />
<glyph unicode="&#xe915;" glyph-name="box-5" d="M997.58 695.014l-200.986 254.904c-5.041 6.356-12.493 10.082-20.603 10.082h-527.781c-8.11 0-15.781-3.726-20.603-10.082l-200.986-254.904c-3.726-4.603-5.699-10.301-5.699-16.219v-716.493c0-14.466 11.836-26.301 26.301-26.301h929.534c14.466 0 26.301 11.836 26.301 26.301v716.493c0.219 5.918-1.753 11.616-5.479 16.219zM926.128 700.712h-387.726v206.685h224.877l162.849-206.685zM260.923 907.397h224.877v-206.685h-387.726l162.849 206.685zM73.525-11.397v659.507h876.932v-659.507h-876.932zM638.347 437.041c-10.301 10.301-26.959 10.301-37.26 0l-88.986-88.986-88.986 88.986c-10.301 10.301-26.959 10.301-37.26 0s-10.301-26.959 0-37.26l88.986-88.986-88.986-88.986c-10.301-10.301-10.301-26.959 0-37.26 5.041-5.041 11.836-7.671 18.63-7.671s13.37 2.63 18.63 7.671l88.986 88.986 88.986-88.986c5.041-5.041 11.836-7.671 18.63-7.671s13.37 2.63 18.63 7.671c10.301 10.301 10.301 26.959 0 37.26l-88.986 88.986 88.986 88.986c10.301 10.301 10.301 26.959 0 37.26z" />
<glyph unicode="&#xe916;" glyph-name="calculator" d="M898.786 960h-773.572c-33.426 0-60.618-27.194-60.618-60.618v-902.762c0-33.426 27.194-60.618 60.618-60.618h773.572c33.426 0 60.618 27.194 60.618 60.618v902.762c0 33.424-27.192 60.618-60.618 60.618zM113.090 899.382c0 6.684 5.438 12.124 12.124 12.124h773.572c6.684 0 12.124-5.438 12.124-12.124v-210.2h-797.82v210.2zM346.7-15.502h-221.486c-6.684-0.002-12.124 5.438-12.124 12.122v291.788h233.61v-303.91zM346.7 336.902h-233.61v303.784h233.61v-303.784zM628.804-15.506h-233.61v303.914h233.61v-303.914zM628.804 336.902h-233.61v303.784h233.61v-303.784zM910.91-3.38c0-6.684-5.442-12.126-12.124-12.126h-221.488v656.192h233.612v-644.066zM289.842 513.040h-35.7v35.7c0 13.392-10.856 24.248-24.248 24.248s-24.248-10.856-24.248-24.248v-35.7h-35.7c-13.392 0-24.248-10.858-24.248-24.248s10.856-24.248 24.248-24.248h35.7v-35.702c0-13.392 10.856-24.248 24.248-24.248s24.248 10.856 24.248 24.248v35.702h35.7c13.392 0 24.248 10.858 24.248 24.248s-10.856 24.248-24.248 24.248zM573.146 513.040h-122.294c-13.392 0-24.248-10.858-24.248-24.248s10.856-24.248 24.248-24.248h122.294c13.39 0 24.248 10.858 24.248 24.248s-10.858 24.248-24.248 24.248zM264.186 136.388l29.27 29.27c9.468 9.468 9.468 24.822 0 34.294-9.468 9.466-24.822 9.466-34.294 0l-29.27-29.27-29.27 29.27c-9.468 9.466-24.822 9.466-34.294 0-9.468-9.468-9.468-24.822 0-34.294l29.272-29.27-29.27-29.27c-9.468-9.468-9.468-24.822 0-34.29 4.736-4.734 10.94-7.102 17.146-7.102 6.204 0 12.412 2.368 17.146 7.102l29.27 29.27 29.27-29.27c4.736-4.734 10.94-7.102 17.146-7.102s12.412 2.368 17.146 7.102c9.468 9.468 9.468 24.822 0 34.29l-29.268 29.27zM575.552 199.95c-9.472 9.466-24.82 9.466-34.294 0l-92.832-92.832c-9.466-9.468-9.466-24.822 0.002-34.294 4.736-4.734 10.94-7.102 17.146-7.102s12.412 2.37 17.146 7.102l92.832 92.832c9.468 9.47 9.468 24.824 0 34.294zM486.258 182.798c0-11.423-9.261-20.684-20.684-20.684s-20.684 9.261-20.684 20.684c0 11.423 9.261 20.684 20.684 20.684s20.684-9.261 20.684-20.684zM579.098 89.978c0-11.421-9.259-20.68-20.68-20.68s-20.68 9.259-20.68 20.68c0 11.421 9.259 20.68 20.68 20.68s20.68-9.259 20.68-20.68zM855.368 379.154h-123.942c-13.39 0-24.248-10.856-24.248-24.248 0-13.39 10.858-24.248 24.248-24.248h123.942c13.39 0 24.248 10.858 24.248 24.248 0 13.392-10.856 24.248-24.248 24.248zM855.368 294.522h-123.942c-13.39 0-24.248-10.858-24.248-24.248s10.858-24.248 24.248-24.248h123.942c13.39 0 24.248 10.858 24.248 24.248s-10.856 24.248-24.248 24.248z" />
<glyph unicode="&#xe917;" glyph-name="calendar" d="M852.796 561.344c0-13.595-11.021-24.616-24.616-24.616s-24.616 11.021-24.616 24.616c0 13.595 11.021 24.616 24.616 24.616s24.616-11.021 24.616-24.616zM694.708 561.344c0-13.595-11.021-24.616-24.616-24.616s-24.616 11.021-24.616 24.616c0 13.595 11.021 24.616 24.616 24.616s24.616-11.021 24.616-24.616zM536.618 561.344c0-13.595-11.021-24.616-24.616-24.616s-24.616 11.021-24.616 24.616c0 13.595 11.021 24.616 24.616 24.616s24.616-11.021 24.616-24.616zM378.53 561.344c0-13.595-11.021-24.616-24.616-24.616s-24.616 11.021-24.616 24.616c0 13.595 11.021 24.616 24.616 24.616s24.616-11.021 24.616-24.616zM220.44 561.344c0-13.595-11.021-24.616-24.616-24.616s-24.616 11.021-24.616 24.616c0 13.595 11.021 24.616 24.616 24.616s24.616-11.021 24.616-24.616zM852.796 403.254c0-13.595-11.021-24.616-24.616-24.616s-24.616 11.021-24.616 24.616c0 13.595 11.021 24.616 24.616 24.616s24.616-11.021 24.616-24.616zM694.708 403.254c0-13.595-11.021-24.616-24.616-24.616s-24.616 11.021-24.616 24.616c0 13.595 11.021 24.616 24.616 24.616s24.616-11.021 24.616-24.616zM536.618 403.254c0-13.595-11.021-24.616-24.616-24.616s-24.616 11.021-24.616 24.616c0 13.595 11.021 24.616 24.616 24.616s24.616-11.021 24.616-24.616zM220.44 403.254c0-13.595-11.021-24.616-24.616-24.616s-24.616 11.021-24.616 24.616c0 13.595 11.021 24.616 24.616 24.616s24.616-11.021 24.616-24.616zM852.796 245.166c0-13.595-11.021-24.616-24.616-24.616s-24.616 11.021-24.616 24.616c0 13.595 11.021 24.616 24.616 24.616s24.616-11.021 24.616-24.616zM694.708 245.166c0-13.595-11.021-24.616-24.616-24.616s-24.616 11.021-24.616 24.616c0 13.595 11.021 24.616 24.616 24.616s24.616-11.021 24.616-24.616zM536.618 245.166c0-13.595-11.021-24.616-24.616-24.616s-24.616 11.021-24.616 24.616c0 13.595 11.021 24.616 24.616 24.616s24.616-11.021 24.616-24.616zM378.53 245.166c0-13.595-11.021-24.616-24.616-24.616s-24.616 11.021-24.616 24.616c0 13.595 11.021 24.616 24.616 24.616s24.616-11.021 24.616-24.616zM220.44 245.166c0-13.595-11.021-24.616-24.616-24.616s-24.616 11.021-24.616 24.616c0 13.595 11.021 24.616 24.616 24.616s24.616-11.021 24.616-24.616zM428.2 498.7h-148.58c-11.688 0-21.16-9.472-21.16-21.16v-148.582c0-11.688 9.472-21.16 21.16-21.16h148.58c11.688 0 21.16 9.472 21.16 21.16v148.578c0 11.69-9.474 21.164-21.16 21.164zM407.040 350.12h-106.26v106.258h106.258v-106.258zM953.466 781.772h-155.418v27.158c0 12.986-10.526 23.512-23.512 23.512-12.982 0-23.512-10.528-23.512-23.512v-27.158h-128.002v27.158c0 12.986-10.528 23.512-23.512 23.512-12.986 0-23.512-10.528-23.512-23.512v-27.158h-127.998v27.158c0 12.986-10.526 23.512-23.512 23.512s-23.512-10.528-23.512-23.512v-27.158h-128.002v27.158c0 12.986-10.526 23.512-23.512 23.512s-23.512-10.528-23.512-23.512v-27.158h-155.42c-38.888 0-70.53-31.64-70.53-70.532v-577.146c0-38.892 31.642-70.534 70.534-70.534h882.934c38.892 0 70.534 31.642 70.534 70.534v577.146c-0.002 38.892-31.646 70.532-70.536 70.532zM953.466 110.58h-882.932c-12.964 0-23.512 10.548-23.512 23.512v577.148c0 12.964 10.548 23.512 23.512 23.512h155.418v-27.156c0-12.982 10.526-23.512 23.512-23.512s23.512 10.528 23.512 23.512v27.156h128.002v-27.156c0-12.982 10.526-23.512 23.512-23.512s23.512 10.528 23.512 23.512v27.156h127.998v-27.156c0-12.982 10.526-23.512 23.512-23.512 12.982 0 23.512 10.528 23.512 23.512v27.156h128.002v-27.156c0-12.982 10.528-23.512 23.512-23.512 12.986 0 23.512 10.528 23.512 23.512v27.156h155.418c12.964 0 23.512-10.548 23.512-23.512v-577.146h0.002c-0.004-12.966-10.552-23.514-23.516-23.514z" />
<glyph unicode="&#xe918;" glyph-name="cancel" d="M512-64c282.31 0 512 229.69 512 512s-229.69 512-512 512-512-229.69-512-512 229.69-512 512-512zM512 908.842c254.121 0 460.842-206.721 460.842-460.842s-206.721-460.842-460.842-460.842-460.842 206.721-460.842 460.842 206.721 460.842 460.842 460.842zM376.483 312.483c5.011-5.011 11.485-7.517 18.166-7.517s13.155 2.506 18.166 7.517l99.393 99.393 99.393-99.393c5.011-5.011 11.485-7.517 18.166-7.517s13.155 2.506 18.166 7.517c10.023 10.023 10.023 26.101 0 36.124l-99.811 99.393 99.393 99.393c10.023 10.023 10.023 26.101 0 36.124s-26.101 10.023-36.124 0l-99.393-99.393-99.393 99.393c-10.023 10.023-26.101 10.023-36.124 0s-10.023-26.101 0-36.124l99.393-99.393-99.393-99.393c-10.023-10.023-10.023-26.101 0-36.124z" />
<glyph unicode="&#xe919;" glyph-name="cancel_2" d="M588.221 447.999l419.995 419.995c21.046 21.048 21.046 55.172 0 76.218-21.048 21.048-55.174 21.048-76.22 0l-419.997-419.995-419.995 419.995c-21.048 21.048-55.172 21.048-76.218 0s-21.048-55.172 0-76.218l419.995-419.995-419.995-419.995c-21.048-21.048-21.048-55.172 0-76.218 21.048-21.048 55.172-21.046 76.218 0l419.995 419.995 419.993-419.995c21.048-21.048 55.174-21.046 76.22 0 21.046 21.048 21.046 55.172 0 76.218l-419.991 419.995z" />
<glyph unicode="&#xe91a;" glyph-name="car" d="M954.56 573.352l-195.104 78.192c-32.48 13.026-66.696 19.622-101.708 19.622h-119.592c-42.844 0-85.69-10.26-123.886-29.694l-176.782-89.898-126.816-18.49c-30.74-4.482-58.844-19.894-79.176-43.41-20.314-23.498-31.496-53.548-31.496-84.602v-74.842c0-11.56 9.382-20.94 20.94-20.94h89.836c4.502-20.376 14.826-39.012 30.070-53.88 20.27-19.706 47.012-30.574 75.302-30.574 28.27 0 55.012 10.868 75.282 30.574 15.266 14.888 25.61 33.568 30.092 53.88h375.32c4.502-20.376 14.826-39.012 30.092-53.86 20.25-19.726 46.99-30.594 75.26-30.594 28.29 0 55.032 10.868 75.282 30.574 15.266 14.868 25.59 33.506 30.092 53.88h95.49c11.56 0 20.94 9.382 20.94 20.94v140.47c0.002 45.442-27.262 85.73-69.438 102.652zM743.876 612.678l150.606-60.372h-113.646l-50.028 65.146c4.378-1.466 8.734-3.058 13.068-4.774zM557.798 629.284h99.95c3.812 0 7.602-0.084 11.37-0.272l58.906-76.706h-170.226v76.978zM433.242 604.134c25.736 13.088 53.944 21.254 82.674 24.040v-75.868h-184.592l101.918 51.828zM113.478 491.076c-8.606-29.128-34.3-50.99-65.418-53.964 10.908 27.368 35.346 48.414 65.418 53.964zM216.128 266.716c-36.478 0-66.046 29.568-66.046 66.046s29.568 66.046 66.046 66.046 66.046-29.568 66.046-66.046c0.002-36.478-29.566-66.046-66.046-66.046zM802.218 266.716c-36.478 0-66.068 29.568-66.068 66.046s29.59 66.046 66.068 66.046c36.478 0 66.046-29.568 66.046-66.046s-29.568-66.046-66.046-66.046zM982.118 351.17h-73.586c-8.774 50.76-53.084 89.522-106.336 89.522-53.232 0-97.542-38.762-106.316-89.522h-373.394c-8.774 50.76-53.106 89.522-106.336 89.522-53.252 0-97.562-38.762-106.336-89.522h-67.932v43.724c59.326 0.544 108.284 45.19 115.592 102.694l88.056 12.836h524.984c0 0 0 0 0.020 0 0 0 0 0 0.020 0h132.512v-27.264c0-38.322 31.18-69.502 69.482-69.502h9.57v-62.488zM982.118 455.538h-9.57c-15.204 0-27.6 12.396-27.6 27.62v27.264h24.564c8.020-11.35 12.606-25.086 12.606-39.724v-15.16zM580.398 451.734h-138.892c-11.566 0-20.94-9.376-20.94-20.94s9.376-20.94 20.94-20.94h138.892c11.564 0 20.94 9.376 20.94 20.94s-9.376 20.94-20.94 20.94zM216.128 360.53c-15.328 0-27.746-12.438-27.746-27.768 0-15.328 12.418-27.768 27.746-27.768 15.35 0 27.768 12.438 27.768 27.768s-12.418 27.768-27.768 27.768zM802.218 360.53c-15.35 0-27.768-12.438-27.768-27.768 0-15.328 12.418-27.768 27.768-27.768 15.328 0 27.746 12.438 27.746 27.768s-12.418 27.768-27.746 27.768z" />
<glyph unicode="&#xe91b;" glyph-name="cash" d="M383.293 303.931l167.051-50.647c-0.213-1.064-0.638-2.341-1.064-3.405-4.469-12.13-13.619-18.94-28.516-21.28-54.903-8.725-145.983-3.192-146.834-3.192-14.045 0.851-26.175-9.789-27.026-23.834s9.789-26.175 23.834-27.026c4.043-0.213 97.464-5.958 158.113 3.83 60.223 9.576 77.46 62.564 74.268 95.974-1.064 10.427-8.087 19.152-18.088 22.132l-187.054 56.606c-92.357 27.877-193.651-23.621-197.907-25.749-0.426-0.213-1.064-0.426-1.49-0.851l-186.203-112.573c-12.13-7.235-15.96-22.983-8.725-35.113 4.894-7.874 13.194-12.343 21.919-12.343 4.469 0 8.938 1.277 13.194 3.618l185.352 111.722c8.087 4.256 89.59 43.199 159.177 22.132zM1020.853 346.704c-14.683 26.813-60.436 69.587-129.81 38.943-65.543-29.154-204.079-95.762-205.568-96.4-12.768-6.171-18.088-21.28-11.917-34.049s21.493-18.088 34.049-11.917c1.49 0.638 139.174 67.033 204.079 95.762 18.514 8.299 34.049 8.299 47.455 0 0.426-0.213 0.638-0.426 1.064-0.638l-347.083-254.3c-24.685-18.088-55.967-25.536-85.973-20.855l-309.629 49.37c-7.235 1.064-14.683-0.851-20.429-5.533l-78.312-65.331c-10.853-8.938-12.343-25.111-3.192-35.964 5.107-5.958 12.343-9.151 19.578-9.151 5.746 0 11.491 1.915 16.386 5.958l69.374 57.883 298.351-47.668c43.412-7.023 88.739 4.043 124.277 30.005l370.278 271.112c10.002 7.661 13.194 21.493 7.023 32.772zM547.79 376.071c39.794 0 77.035 15.535 105.338 43.625 58.095 58.095 58.095 152.367 0 210.463-28.090 28.090-65.543 43.625-105.338 43.625s-77.035-15.535-105.338-43.625c-58.095-58.095-58.095-152.367 0-210.463 28.303-28.090 65.543-43.625 105.338-43.625zM478.629 593.982c18.514 18.514 42.986 28.728 69.161 28.728s50.647-10.215 69.161-28.728c38.092-38.092 38.092-100.23 0-138.322-18.514-18.514-42.986-28.728-69.161-28.728s-50.647 10.215-69.161 28.728c-38.092 38.092-38.092 100.23 0 138.322zM722.502 666.974c31.069 0 60.223 12.13 82.142 34.049 45.327 45.327 45.327 118.957 0 164.284-21.919 21.919-51.073 34.049-82.142 34.049s-60.223-12.13-82.142-34.049c-45.327-45.327-45.327-118.957 0-164.284 21.919-22.132 51.286-34.049 82.142-34.049zM676.537 829.13c12.343 12.343 28.728 19.152 46.178 19.152s33.836-6.81 46.178-19.152c25.324-25.324 25.324-66.82 0-92.144-12.343-12.343-28.728-19.152-46.178-19.152s-33.836 6.81-46.178 19.152c-25.324 25.536-25.324 66.82 0 92.144z" />
<glyph unicode="&#xe91c;" glyph-name="chat" d="M744.581 858.484h-686.919c-31.796 0-57.662-25.866-57.662-57.66v-412.113c0-31.794 25.866-57.662 57.662-57.662h44.542v-153.42c0-9.768 5.884-18.578 14.912-22.318 2.988-1.24 6.128-1.84 9.24-1.84 6.288 0 12.464 2.456 17.086 7.076l170.502 170.5h34.208c13.342 0 24.156 10.814 24.156 24.156 0 13.344-10.818 24.158-24.156 24.158 0 0-45.38-0.032-45.854-0.080-5.624-0.382-11.144-2.698-15.444-6.996l-136.338-136.338c0 0-0.042 120.784-0.12 121.41-1.090 12.332-11.434 22.004-24.048 22.004h-68.686c-5.156 0-9.348 4.194-9.348 9.348v412.115c0 5.156 4.194 9.348 9.348 9.348h686.919c5.156 0 9.348-4.194 9.348-9.348v-158.11c0-13.342 10.818-24.156 24.156-24.156s24.156 10.814 24.156 24.156v158.11c0 31.794-25.866 57.66-57.66 57.66zM966.34 563.015h-480.831c-31.794 0-57.662-25.866-57.662-57.662v-281.141c0-31.794 25.866-57.662 57.662-57.662h301.029l121.96-121.96c4.622-4.622 10.8-7.076 17.086-7.076 3.112 0 6.252 0.602 9.24 1.84 9.024 3.74 14.912 12.546 14.912 22.318v104.88h16.602c31.794 0 57.662 25.866 57.662 57.662v281.141c0.002 31.794-25.864 57.66-57.66 57.66zM975.69 224.213c0-5.154-4.194-9.348-9.348-9.348h-40.752c-12.712 0-23.108-9.824-24.062-22.294-0.062-0.528-0.102-72.58-0.102-72.58l-87.708 87.71c-0.092 0.092-0.188 0.178-0.28 0.27-0.344 0.336-0.67 0.628-0.978 0.89-4.252 3.728-9.806 6.006-15.902 6.006h-311.049c-5.156 0-9.348 4.194-9.348 9.348v281.141c0 5.156 4.194 9.348 9.348 9.348h480.833c5.154 0 9.348-4.194 9.348-9.348v-281.143zM725.929 388.939c-13.334 0-24.156-10.822-24.156-24.156s10.822-24.156 24.156-24.156c13.336 0 24.156 10.822 24.156 24.156s-10.822 24.156-24.156 24.156zM620.945 698.777c0 0-439.645 0-439.645 0-13.34 0-24.156-10.814-24.156-24.156s10.818-24.156 24.156-24.156h439.645c13.34 0 24.156 10.814 24.156 24.156s-10.816 24.156-24.156 24.156zM348.151 539.069h-166.85c-13.34 0-24.156-10.814-24.156-24.156s10.818-24.156 24.156-24.156h166.85c13.342 0 24.156 10.814 24.156 24.156s-10.816 24.156-24.156 24.156zM613.675 388.939c-13.332 0-24.156-10.822-24.156-24.156s10.824-24.156 24.156-24.156c13.336 0 24.156 10.822 24.156 24.156s-10.82 24.156-24.156 24.156zM838.16 388.939c-13.334 0-24.156-10.822-24.156-24.156s10.822-24.156 24.156-24.156c13.336 0 24.156 10.822 24.156 24.156s-10.822 24.156-24.156 24.156z" />
<glyph unicode="&#xe91d;" glyph-name="chat-1" d="M940.478 897.042h-856.954c-46.054 0-83.524-37.47-83.524-83.526v-501.061c0-46.058 37.47-83.528 83.526-83.528h48.83v-206.158c0-9.632 5.804-18.314 14.7-22 2.946-1.22 6.038-1.812 9.106-1.812 6.198 0 12.29 2.42 16.844 6.974l222.994 222.998h544.473c46.056 0 83.524 37.47 83.524 83.528v501.059c0.004 46.056-37.466 83.526-83.52 83.526zM940.478 276.555h-554.353c-6.16 0-11.756-2.36-15.982-6.198-0.038-0.034-0.082-0.076-0.12-0.11-0.29-0.266-0.586-0.526-0.862-0.808l-189.18-189.178v172.482c0 0.828-0.042 1.562-0.126 2.21-1.116 12.114-11.294 21.602-23.7 21.602h-72.63c-19.796 0-35.9 16.106-35.9 35.902v501.059c0 19.796 16.104 35.9 35.9 35.9h856.952c19.798 0 35.9-16.104 35.9-35.9v-501.061c0-19.794-16.104-35.9-35.898-35.9zM347.975 723.126h-138.798c-13.152 0-23.812-10.664-23.812-23.812 0-13.15 10.66-23.812 23.812-23.812h138.798c13.152 0 23.812 10.664 23.812 23.812 0 13.15-10.662 23.812-23.812 23.812zM595.477 586.799h-386.303c-13.152 0-23.812-10.664-23.812-23.812 0-13.15 10.66-23.812 23.812-23.812h386.303c13.15 0 23.812 10.66 23.812 23.812 0 13.148-10.662 23.812-23.812 23.812zM814.83 723.126h-327.815c-13.152 0-23.812-10.664-23.812-23.812 0-13.15 10.66-23.812 23.812-23.812h327.815c13.15 0 23.812 10.664 23.812 23.812 0 13.152-10.662 23.812-23.812 23.812zM814.83 586.799h-86.204c-13.15 0-23.812-10.664-23.812-23.812 0-13.152 10.664-23.812 23.812-23.812h86.204c13.15 0 23.812 10.66 23.812 23.812s-10.662 23.812-23.812 23.812zM424.815 450.469h-215.64c-13.152 0-23.812-10.66-23.812-23.812 0-13.15 10.66-23.812 23.812-23.812h215.64c13.152 0 23.812 10.664 23.812 23.812 0 13.152-10.66 23.812-23.812 23.812zM814.83 450.469h-263.479c-13.15 0-23.812-10.66-23.812-23.812 0-13.15 10.664-23.812 23.812-23.812h263.479c13.15 0 23.812 10.664 23.812 23.812 0 13.152-10.662 23.812-23.812 23.812z" />
<glyph unicode="&#xe91e;" glyph-name="check" d="M916.122 960h-808.245c-59.584 0-107.878-48.503-107.878-107.878v-808.245c0-59.584 48.503-107.878 107.878-107.878h808.245c59.584 0 107.878 48.503 107.878 107.878v808.245c0 59.374-48.503 107.878-107.878 107.878zM972.779 43.878c0-31.151-25.506-56.657-56.657-56.657h-808.245c-31.151 0-56.657 25.506-56.657 56.657v808.245c0 31.151 25.506 56.657 56.657 56.657h808.245c31.151 0 56.657-25.506 56.657-56.657v-808.245zM667.962 588.073l-227.254-225.79-84.671 85.089c-10.035 10.035-26.133 10.035-36.168 0s-10.035-26.133 0-36.168l102.651-103.278c4.808-4.808 11.29-7.526 18.189-7.526v0c6.69 0 13.171 2.718 17.98 7.526l245.442 243.979c10.035 10.035 10.035 26.133 0 36.168s-26.133 10.035-36.168 0z" />
<glyph unicode="&#xe91f;" glyph-name="checked" d="M512 960c-282.31 0-512-229.69-512-512s229.69-512 512-512 512 229.69 512 512-229.69 512-512 512zM512-12.842c-254.121 0-460.842 206.721-460.842 460.842s206.721 460.842 460.842 460.842 460.842-206.721 460.842-460.842-206.721-460.842-460.842-460.842zM646.055 572.659l-196.281-195.237-71.622 72.039c-10.023 10.023-26.101 10.023-36.124 0.209s-10.023-26.101-0.209-36.124l89.579-90.206c5.011-5.011 11.485-7.517 18.166-7.517 6.473 0 12.946 2.506 17.958 7.517l214.447 213.194c10.023 10.023 10.023 26.101 0.209 36.124-10.023 10.023-26.101 10.023-36.124 0z" />
<glyph unicode="&#xe920;" glyph-name="clock" d="M511.984-64c-282.318 0-511.984 229.666-511.984 512.016 0 282.285 229.666 511.984 511.984 511.984s511.984-229.699 511.984-511.984c0.033-282.351-229.666-512.016-511.984-512.016zM511.984 901.479c-250.041 0-453.463-203.422-453.463-453.463 0-250.074 203.422-453.496 453.463-453.496s453.463 203.422 453.463 453.496c0.033 250.041-203.389 453.463-453.463 453.463zM669.017 261.739c-7.517 0-14.968 2.835-20.705 8.572l-157.001 157.001c-5.506 5.506-8.572 12.924-8.572 20.705v332.168c0 16.155 13.089 29.244 29.277 29.244 16.155 0 29.244-13.056 29.244-29.244v-320.068l148.429-148.429c11.44-11.44 11.44-29.969 0-41.377-5.737-5.737-13.221-8.572-20.672-8.572z" />
<glyph unicode="&#xe921;" glyph-name="clock-2" d="M507.061 960c-279.871 0-507.061-227.19-507.061-507.061s227.19-507.061 507.061-507.061c134.997 0 263.408 52.682 358.894 148.167s148.167 223.897 148.167 358.894c0 279.871-227.19 507.061-507.061 507.061zM925.222 452.939c0-230.482-187.678-418.161-418.161-418.161s-418.161 187.678-418.161 418.161c0 230.482 187.678 418.161 418.161 418.161 111.949 0 217.312-42.804 296.334-121.826s121.826-184.386 121.826-296.334zM549.865 469.402v302.92c0 23.048-19.756 42.804-42.804 42.804s-42.804-19.756-42.804-42.804v-319.383c0-13.17 3.293-23.048 13.17-29.633l151.46-151.46c9.878-9.878 19.756-13.17 29.633-13.17 13.17 0 23.048 3.293 29.633 13.17 9.878 9.878 13.17 19.756 13.17 29.633 0 13.17-3.293 23.048-13.17 29.633l-138.289 138.289z" />
<glyph unicode="&#xe922;" glyph-name="close" d="M916.122 960h-808.245c-59.584 0-107.878-48.503-107.878-107.878v-808.245c0-59.584 48.503-107.878 107.878-107.878h808.245c59.584 0 107.878 48.503 107.878 107.878v808.245c0 59.374-48.503 107.878-107.878 107.878zM972.779 43.878c0-31.151-25.506-56.657-56.657-56.657h-808.245c-31.151 0-56.657 25.506-56.657 56.657v808.245c0 31.151 25.506 56.657 56.657 56.657h808.245c31.151 0 56.657-25.506 56.657-56.657v-808.245zM666.917 602.917c-10.035 10.035-26.133 10.035-36.168 0l-118.749-118.749-118.749 118.749c-10.035 10.035-26.133 10.035-36.168 0s-10.035-26.133 0-36.168l118.749-118.749-118.749-118.749c-10.035-10.035-10.035-26.133 0-36.168 5.018-5.018 11.499-7.526 18.189-7.526s13.171 2.509 18.189 7.526l118.749 118.749 118.749-118.749c5.018-5.018 11.499-7.526 18.189-7.526s13.171 2.509 18.189 7.526c10.035 10.035 10.035 26.133 0 36.168l-119.167 118.749 118.749 118.749c10.035 10.035 10.035 26.133 0 36.168z" />
<glyph unicode="&#xe923;" glyph-name="cloud" d="M811.934 521.979c-2.14 156.126-129.808 282.477-286.427 282.477-69.672 0-136.792-25.346-188.996-71.364-46.592-41.068-78.464-95.952-91.086-156.21-0.922 0.010-1.836 0.018-2.748 0.018-133.812-0.002-242.678-108.866-242.678-242.68s108.866-242.678 242.678-242.678h566.091c118.68 0 215.23 96.55 215.232 215.228 0 117.62-94.84 213.508-212.066 215.208zM808.768 135.22h-566.091c-109.73 0-199.002 89.272-199.002 199.002s89.272 199.002 199.002 199.002c5.85 0 12.030-0.312 18.892-0.96 11.644-1.12 22.106 7.192 23.688 18.792 7.862 57.64 36.322 110.654 80.134 149.276 44.222 38.984 101.084 60.452 160.112 60.452 133.868 0 242.778-108.908 242.778-242.778 0-4.82-0.358-9.788-0.736-15.048l-0.16-2.238c-0.454-6.424 1.952-12.722 6.574-17.208 4.62-4.486 10.99-6.696 17.396-6.060 5.804 0.584 11.662 0.88 17.412 0.88 94.594 0 171.554-76.96 171.554-171.556s-76.958-171.556-171.552-171.556zM525.507 701.821c-91.316 0-169.484-68.24-181.826-158.734-1.63-11.952 6.738-22.96 18.686-24.59 1-0.138 1.996-0.204 2.978-0.204 10.748 0 20.118 7.94 21.61 18.89 9.406 68.958 68.97 120.962 138.55 120.962 12.062 0 21.838 9.78 21.838 21.838 0.002 12.060-9.774 21.838-21.836 21.838z" />
<glyph unicode="&#xe924;" glyph-name="cloud-computing" d="M811.932 569.777c-2.138 156.122-129.804 282.477-286.425 282.477-69.67 0-136.792-25.344-188.996-71.364-46.592-41.070-78.464-95.954-91.086-156.212-0.922 0.010-1.836 0.018-2.748 0.018-133.81 0-242.678-108.866-242.678-242.678s108.868-242.678 242.68-242.678h169.486c12.058 0 21.838 9.776 21.838 21.838s-9.78 21.838-21.838 21.838h-169.486c-109.732 0-199.004 89.272-199.004 199.002s89.272 199.002 199.004 199.002c5.846 0 12.026-0.314 18.896-0.96 11.644-1.090 22.098 7.192 23.684 18.792 7.864 57.64 36.322 110.654 80.134 149.276 44.222 38.984 101.084 60.452 160.112 60.452 133.87 0 242.778-108.91 242.778-242.778 0-4.82-0.358-9.788-0.736-15.048l-0.162-2.236c-0.454-6.424 1.95-12.722 6.574-17.208 4.618-4.486 10.976-6.702 17.394-6.060 5.808 0.586 11.668 0.88 17.416 0.88 94.594 0 171.556-76.96 171.556-171.556 0-94.594-76.96-171.554-171.556-171.554h-178.222c-12.058 0-21.838-9.776-21.838-21.838s9.78-21.838 21.838-21.838h178.222c118.678 0 215.232 96.55 215.232 215.23-0.002 117.614-94.842 213.504-212.068 215.202zM525.509 749.616c-91.316 0-169.484-68.242-181.828-158.734-1.63-11.95 6.738-22.96 18.686-24.59 1.002-0.136 1.996-0.204 2.978-0.204 10.75 0 20.118 7.94 21.608 18.888 9.406 68.96 68.972 120.964 138.554 120.964 12.062 0 21.838 9.776 21.838 21.838 0.002 12.060-9.776 21.838-21.836 21.838zM624.819 319.897l-79.436 70.96c-13.694 12.24-34.354 12.238-48.054 0.002l-79.436-70.964c-8.996-8.034-9.772-21.84-1.738-30.836 8.034-8.992 21.838-9.774 30.836-1.738l52.528 46.924v-268.661c0-12.062 9.776-21.838 21.838-21.838 12.060 0 21.838 9.776 21.838 21.838v268.665l52.53-46.926c4.164-3.722 9.362-5.552 14.54-5.552 6.004 0 11.98 2.458 16.296 7.29 8.030 8.996 7.252 22.8-1.742 30.836z" />
<glyph unicode="&#xe925;" glyph-name="cloud-computing-1" d="M811.932 585.067c-2.138 156.122-129.804 282.477-286.425 282.477-69.67 0-136.792-25.344-188.996-71.364-46.592-41.070-78.464-95.954-91.086-156.212-0.922 0.010-1.836 0.018-2.748 0.018-133.81-0.002-242.678-108.868-242.678-242.68s108.868-242.678 242.68-242.678h89.068c12.058 0 21.838 9.776 21.838 21.838s-9.78 21.838-21.838 21.838h-89.068c-109.732 0-199.004 89.272-199.004 199.002s89.272 199.002 199.004 199.002c5.846 0 12.026-0.314 18.896-0.96 11.644-1.080 22.098 7.192 23.684 18.792 7.864 57.64 36.322 110.654 80.134 149.276 44.222 38.984 101.084 60.452 160.112 60.452 133.87 0 242.778-108.91 242.778-242.778 0-4.82-0.898-17.284-0.898-17.284-0.454-6.424 1.95-12.722 6.574-17.208 4.618-4.486 10.976-6.698 17.394-6.060 5.808 0.586 11.668 0.88 17.416 0.88 94.594 0 171.556-76.96 171.556-171.556 0-94.594-76.96-171.554-171.556-171.554h-97.804c-12.058 0-21.838-9.776-21.838-21.838s9.78-21.838 21.838-21.838h97.804c118.678 0 215.232 96.55 215.232 215.23-0.002 117.616-94.842 213.504-212.068 215.204zM525.509 764.904c-91.316 0-169.484-68.242-181.828-158.734-1.63-11.95 6.742-22.924 18.686-24.59 12.736-1.776 23.096 7.738 24.59 18.686 9.404 68.958 68.968 120.96 138.552 120.96 12.062 0 21.838 9.776 21.838 21.838 0 12.064-9.778 21.84-21.838 21.84zM626.557 139.436c-8.034 8.992-21.84 9.774-30.836 1.736l-52.53-46.926v268.661c0 12.062-9.78 21.838-21.838 21.838-12.062 0-21.838-9.776-21.838-21.838v-268.659l-52.528 46.926c-8.992 8.036-22.802 7.254-30.834-1.736-8.036-8.996-7.26-22.798 1.736-30.836l79.434-70.966c6.85-6.122 15.438-9.18 24.028-9.18 8.588 0 17.178 3.060 24.026 9.178l79.438 70.966c8.998 8.034 9.776 21.84 1.742 30.836z" />
<glyph unicode="&#xe926;" glyph-name="coin" d="M550.128 474.145h-76.037c-31.591 0-57.3 25.709-57.3 57.3s25.709 57.3 57.3 57.3h134.209c14.38 0 26.145 11.765 26.145 26.145s-11.765 26.145-26.145 26.145h-69.937v53.379c0 14.38-11.765 26.145-26.145 26.145s-26.145-11.765-26.145-26.145v-53.379h-11.983c-60.351 0-109.59-49.239-109.59-109.59s49.239-109.59 109.59-109.59h76.037c31.591 0 57.3-25.709 57.3-57.3s-25.709-57.3-57.3-57.3h-136.606c-14.38 0-26.145-11.765-26.145-26.145s11.765-26.145 26.145-26.145h72.334v-54.468c0-14.38 11.765-26.145 26.145-26.145s26.145 11.765 26.145 26.145v54.468h12.637c0.218 0 0.436 0 0.654 0 59.697 0.871 108.065 49.675 108.065 109.59 0 60.569-49.021 109.59-109.372 109.59zM874.104 810.104c-96.735 96.735-225.28 149.896-362.104 149.896s-265.369-53.161-362.104-149.896-149.896-225.28-149.896-362.104 53.161-265.369 149.896-362.104 225.28-149.896 362.104-149.896 265.369 53.161 362.104 149.896 149.896 225.28 149.896 362.104-53.161 265.369-149.896 362.104zM512-11.711c-253.386 0-459.711 206.325-459.711 459.711s206.325 459.711 459.711 459.711 459.711-206.325 459.711-459.711-206.325-459.711-459.711-459.711z" />
<glyph unicode="&#xe927;" glyph-name="coins" d="M792.589 653.971c131.992 0 231.411 51.306 231.411 119.431s-99.42 119.431-231.411 119.431-231.411-51.306-231.411-119.431c0-68.125 99.42-119.431 231.411-119.431zM792.589 841.527c110.064 0 180.318-40.449 180.318-68.338s-70.254-68.338-180.318-68.338-180.318 40.449-180.318 68.338 70.254 68.338 180.318 68.338zM1004.627 651.629c-13.199 4.896-27.889-1.916-32.785-15.115-10.857-29.592-82.388-61.525-179.040-61.525-94.097 0-164.564 30.23-178.189 59.396-5.961 12.773-21.289 18.309-34.062 12.348s-18.309-21.289-12.348-34.062c24.908-53.222 115.173-88.775 224.599-88.775 52.158 0 102.826 8.516 143.062 24.269 44.281 17.244 73.447 41.726 84.091 70.892 4.684 12.986-2.129 27.676-15.328 32.572zM1004.627 521.341c-13.199 4.896-27.889-1.916-32.785-15.115-10.857-29.592-82.388-61.525-179.040-61.525-94.097 0-164.564 30.23-178.189 59.396-5.961 12.773-21.289 18.309-34.062 12.348s-18.309-21.289-12.348-34.062c24.908-53.222 115.173-88.775 224.599-88.775 52.158 0 102.826 8.516 143.062 24.269 44.281 17.244 73.447 41.726 84.091 70.892 4.684 12.986-2.129 27.676-15.328 32.572zM1004.627 391.265c-13.199 4.896-27.889-1.916-32.785-15.115-10.857-29.592-82.388-61.525-179.040-61.525-94.097 0-164.564 30.23-178.189 59.396-5.961 12.773-21.289 18.309-34.062 12.348s-18.309-21.289-12.348-34.062c24.908-53.222 115.173-88.775 224.599-88.775 52.158 0 102.826 8.516 143.062 24.269 44.281 17.244 73.447 41.726 84.091 70.892 4.684 12.986-2.129 27.676-15.328 32.572zM1004.627 260.976c-13.199 4.896-27.889-1.916-32.785-15.115-10.857-29.592-82.388-61.525-179.040-61.525-94.097 0-164.564 30.23-178.189 59.396-5.961 12.773-21.289 18.309-34.062 12.348s-18.309-21.289-12.348-34.062c24.908-53.222 115.173-88.775 224.599-88.775 52.158 0 102.826 8.516 143.062 24.269 44.281 17.244 73.447 41.726 84.091 70.892 4.684 13.199-2.129 27.889-15.328 32.572zM1004.627 130.901c-13.199 4.896-27.889-1.916-32.785-15.115-10.857-29.592-82.388-61.525-179.040-61.525-94.097 0-164.564 30.23-178.189 59.396-5.961 12.773-21.289 18.309-34.062 12.348s-18.309-21.289-12.348-34.062c24.908-53.222 115.173-88.775 224.599-88.775 52.158 0 102.826 8.516 143.062 24.269 44.281 17.244 73.447 41.726 84.091 70.892 4.684 12.986-2.129 27.676-15.328 32.572zM443.237 391.265c-13.199 4.896-27.889-1.916-32.785-15.115-10.857-29.592-82.388-61.525-179.040-61.525-94.097 0-164.564 30.23-178.189 59.396-5.961 12.773-21.289 18.309-34.062 12.348s-18.309-21.289-12.348-34.062c24.908-53.222 115.173-88.775 224.599-88.775 52.158 0 102.826 8.516 143.062 24.269 44.281 17.244 73.447 41.726 84.091 70.892 4.684 12.986-2.129 27.676-15.328 32.572zM443.237 260.976c-13.199 4.896-27.889-1.916-32.785-15.115-10.857-29.592-82.388-61.525-179.040-61.525-94.097 0-164.564 30.23-178.189 59.396-5.961 12.773-21.289 18.309-34.062 12.348s-18.309-21.289-12.348-34.062c24.908-53.222 115.173-88.775 224.599-88.775 52.158 0 102.826 8.516 143.062 24.269 44.281 17.244 73.447 41.726 84.091 70.892 4.684 13.199-2.129 27.889-15.328 32.572zM443.237 130.901c-13.199 4.896-27.889-1.916-32.785-15.115-10.857-29.592-82.388-61.525-179.040-61.525-94.097 0-164.564 30.23-178.189 59.396-5.961 12.773-21.289 18.309-34.062 12.348s-18.309-21.289-12.348-34.062c24.908-53.222 115.173-88.775 224.599-88.775 52.158 0 102.826 8.516 143.062 24.269 44.281 17.244 73.447 41.726 84.091 70.892 4.684 12.986-2.129 27.676-15.328 32.572zM231.411 632.469c-131.992 0-231.411-51.306-231.411-119.431s99.42-119.431 231.411-119.431 231.411 51.306 231.411 119.431-99.42 119.431-231.411 119.431zM231.411 444.7c-110.064 0-180.318 40.449-180.318 68.338s70.254 68.338 180.318 68.338 180.318-40.449 180.318-68.338-70.254-68.338-180.318-68.338z" />
<glyph unicode="&#xe928;" glyph-name="communication" d="M0 467.025c0-85.298 31.569-168.924 89.48-237.080-11.917-25.297-29.060-45.367-51.012-59.584-13.171-8.572-19.443-24.252-16.098-39.513 3.345-15.053 15.68-26.342 30.942-28.433 34.914-4.808 100.978-7.526 164.534 25.297 69.2-36.377 147.809-55.611 228.717-55.611 46.831 0 92.825 6.272 136.938 18.816 13.589 3.972 21.534 17.98 17.561 31.569-3.763 13.589-17.98 21.534-31.569 17.561-39.513-11.29-80.908-16.934-122.93-16.934-77.145 0-151.781 19.443-216.173 56.029-7.944 4.599-17.98 4.39-25.924-0.209-37.423-22.37-77.354-28.224-108.714-28.224-0.209 0-0.418 0-0.418 0 20.697 20.279 36.795 45.576 47.667 75.263 3.345 8.99 1.254 19.234-5.227 26.342-56.866 61.674-86.762 135.892-86.762 214.71 0 189.622 177.496 343.703 395.76 343.703 202.375 0 371.508-131.711 393.251-306.28 1.673-14.007 14.425-24.042 28.642-22.161 14.007 1.673 24.042 14.635 22.161 28.642-24.879 200.075-215.755 351.020-444.054 351.020-246.278 0-446.772-177.287-446.772-394.924zM474.996 467.025c0-15.703-12.73-28.433-28.433-28.433s-28.433 12.73-28.433 28.433c0 15.703 12.73 28.433 28.433 28.433s28.433-12.73 28.433-28.433zM352.693 467.025c0-15.703-12.73-28.433-28.433-28.433s-28.433 12.73-28.433 28.433c0 15.703 12.73 28.433 28.433 28.433s28.433-12.73 28.433-28.433zM597.508 467.025c0-15.703-12.73-28.433-28.433-28.433s-28.433 12.73-28.433 28.433c0 15.703 12.73 28.433 28.433 28.433s28.433-12.73 28.433-28.433zM811.799 458.662c-117.076 0-212.201-95.125-212.201-212.201s95.125-212.41 212.201-212.41 212.201 95.125 212.201 212.201-95.125 212.41-212.201 212.41zM811.799 85.272c-88.853 0-160.98 72.336-160.98 160.98s72.336 160.98 160.98 160.98 160.98-72.336 160.98-160.98-72.127-160.98-160.98-160.98zM849.64 303.745l-60.629-60.211-14.844 14.844c-10.035 10.035-26.133 10.035-36.168 0s-10.035-26.133 0-36.168l32.823-33.032c4.808-4.808 11.29-7.526 18.189-7.526v0c6.69 0 13.171 2.718 17.98 7.526l78.817 78.19c10.035 10.035 10.035 26.133 0 36.168s-26.133 10.035-36.168 0.209z" />
<glyph unicode="&#xe929;" glyph-name="communication-1" d="M569.702 139.943c-39.513-11.29-80.908-16.934-122.93-16.934-76.936 0-151.781 19.443-216.173 56.029-7.944 4.599-17.98 4.39-25.924-0.209-37.423-22.37-77.354-28.224-108.714-28.224-0.209 0-0.418 0-0.418 0 20.697 20.279 36.795 45.576 47.667 75.263 3.345 8.99 1.254 19.234-5.227 26.342-56.866 61.674-86.762 135.892-86.762 214.71 0 189.622 177.496 343.703 395.76 343.703 202.375 0 371.508-131.711 393.251-306.28 1.673-14.007 14.425-24.042 28.642-22.161 14.007 1.673 24.042 14.635 22.161 28.642-24.879 200.075-215.964 351.020-444.263 351.020-246.278 0-446.772-177.287-446.772-394.924 0-85.508 31.569-168.924 89.48-237.080-11.917-25.297-29.060-45.367-50.803-59.584-13.171-8.572-19.443-24.252-16.098-39.513 3.345-15.053 15.68-26.342 30.942-28.433 34.914-4.808 100.978-7.526 164.534 25.297 69.2-36.377 147.809-55.611 228.717-55.611 46.831 0 92.825 6.272 136.938 18.816 13.589 3.763 21.534 17.98 17.561 31.569-3.763 13.589-17.771 21.534-31.569 17.561zM475.205 466.92c0-15.703-12.73-28.433-28.433-28.433s-28.433 12.73-28.433 28.433c0 15.703 12.73 28.433 28.433 28.433s28.433-12.73 28.433-28.433zM352.693 466.92c0-15.703-12.73-28.433-28.433-28.433s-28.433 12.73-28.433 28.433c0 15.703 12.73 28.433 28.433 28.433s28.433-12.73 28.433-28.433zM597.508 466.92c0-15.703-12.73-28.433-28.433-28.433s-28.433 12.73-28.433 28.433c0 15.703 12.73 28.433 28.433 28.433s28.433-12.73 28.433-28.433zM811.799 458.558c-56.657 0-109.968-22.161-150.109-62.092-82.79-82.79-82.79-217.428 0-300.217 40.14-40.14 93.452-62.092 150.109-62.092s109.968 22.161 150.109 62.092c82.79 82.79 82.79 217.428 0 300.217-40.14 39.931-93.452 62.092-150.109 62.092zM925.739 132.416c-30.523-30.314-70.873-47.249-113.94-47.249s-83.417 16.725-113.94 47.249c-62.719 62.719-62.719 164.952 0 227.672 30.523 30.314 70.873 47.249 113.94 47.249s83.417-16.725 113.94-47.249c62.719-62.719 62.719-164.952 0-227.672zM861.347 271.863h-98.888c-14.216 0-25.715-11.499-25.715-25.715s11.499-25.715 25.715-25.715h98.888c14.216 0 25.715 11.499 25.715 25.715s-11.708 25.715-25.715 25.715z" />
<glyph unicode="&#xe92a;" glyph-name="communication-2" d="M569.702 139.943c-39.513-11.29-80.908-16.934-122.93-16.934-76.936 0-151.781 19.443-216.173 56.029-7.944 4.599-17.98 4.39-25.924-0.209-37.423-22.37-77.563-28.224-108.714-28.224-0.209 0-0.418 0-0.418 0 20.697 20.279 36.795 45.576 47.667 75.263 3.345 8.99 1.254 19.234-5.227 26.342-56.866 61.674-86.762 135.892-86.762 214.71 0 189.622 177.496 343.703 395.76 343.703 202.375 0 371.508-131.711 393.251-306.28 1.673-14.007 14.425-24.042 28.642-22.161 14.007 1.673 24.042 14.635 22.161 28.642-24.879 200.075-215.964 351.020-444.263 351.020-246.278 0-446.772-177.287-446.772-394.924 0-85.508 31.569-168.924 89.48-237.080-11.917-25.297-28.851-45.158-50.803-59.584-13.171-8.572-19.443-24.252-16.098-39.513 3.345-15.053 15.68-26.342 30.942-28.433 34.914-4.808 100.978-7.526 164.534 25.297 69.2-36.377 147.809-55.611 228.717-55.611 46.831 0 92.825 6.272 136.938 18.816 13.589 3.763 21.534 17.98 17.561 31.569s-17.771 21.534-31.569 17.561zM475.205 466.92c0-15.703-12.73-28.433-28.433-28.433s-28.433 12.73-28.433 28.433c0 15.703 12.73 28.433 28.433 28.433s28.433-12.73 28.433-28.433zM352.693 466.92c0-15.703-12.73-28.433-28.433-28.433s-28.433 12.73-28.433 28.433c0 15.703 12.73 28.433 28.433 28.433s28.433-12.73 28.433-28.433zM597.508 466.92c0-15.703-12.73-28.433-28.433-28.433s-28.433 12.73-28.433 28.433c0 15.703 12.73 28.433 28.433 28.433s28.433-12.73 28.433-28.433zM811.799 458.558c-56.657 0-109.968-22.161-150.109-62.092-82.79-82.79-82.79-217.428 0-300.217 40.14-40.14 93.452-62.092 150.109-62.092s109.968 22.161 150.109 62.092c82.79 82.79 82.79 217.428 0 300.217-40.14 39.931-93.452 62.092-150.109 62.092zM925.739 132.416c-30.523-30.314-70.873-47.249-113.94-47.249s-83.417 16.725-113.94 47.249c-62.719 62.719-62.719 164.952 0 227.672 30.523 30.314 70.873 47.249 113.94 47.249s83.417-16.725 113.94-47.249c62.719-62.719 62.719-164.952 0-227.672zM876.4 310.749c-10.035 10.035-26.133 10.035-36.168 0l-28.433-28.433-28.433 28.433c-10.035 10.035-26.133 10.035-36.168 0s-10.035-26.133 0-36.168l28.433-28.433-28.433-28.224c-10.035-10.035-10.035-26.133 0-36.168 5.018-5.018 11.499-7.526 18.189-7.526s13.171 2.509 18.189 7.526l28.433 28.433 28.433-28.433c5.018-5.018 11.499-7.526 18.189-7.526s13.171 2.509 18.189 7.526c10.035 10.035 10.035 26.133 0 36.168l-28.433 28.433 28.433 28.433c9.617 9.826 9.617 25.924-0.418 35.959z" />
<glyph unicode="&#xe92b;" glyph-name="communication-3" d="M1024 448c0 249.205-229.762 451.998-512 451.998s-512-202.793-512-451.998 229.553-451.998 512-451.998c93.452 0 184.395 22.37 264.049 64.81 41.604-21.952 88.853-33.032 140.701-33.032 16.307 0 32.614 1.045 48.921 3.345 16.098 2.3 28.851 14.007 32.405 29.687 3.554 16.098-2.927 32.196-16.934 41.395-26.551 17.561-47.040 41.813-61.256 72.755 67.319 78.19 104.114 174.569 104.114 273.039zM972.779 448c0-92.198-35.123-178.751-101.396-250.669-6.481-7.108-8.572-17.143-5.227-26.342 13.798-37.004 34.287-67.946 61.256-91.989-51.848-1.882-98.679 9.408-137.983 33.032-3.972 2.509-8.572 3.554-13.171 3.554-4.39 0-8.781-1.045-12.753-3.345-75.054-42.649-162.025-65.228-251.505-65.228-254.014 0-460.779 179.796-460.779 400.777s206.765 400.777 460.779 400.777 460.779-179.587 460.779-400.568zM479.804 422.703h64.183c24.67 0 44.74-22.37 44.74-49.967s-20.070-49.967-44.74-49.967h-115.404c-14.216 0-25.715-11.499-25.715-25.715s11.499-25.715 25.715-25.715h57.702v-47.458c0-14.216 11.499-25.715 25.715-25.715s25.715 11.499 25.715 25.715v47.458h7.108c0.209 0 0.418 0 0.627 0 52.266 0.836 94.706 45.785 94.706 101.187 0 55.82-43.067 101.187-95.961 101.187h-64.183c-24.67 0-44.949 22.37-44.949 49.967s20.070 49.967 44.949 49.967h113.313c14.216 0 25.715 11.499 25.715 25.715s-11.499 25.715-25.715 25.715h-55.611v46.621c0 14.216-11.499 25.715-25.715 25.715s-25.715-11.499-25.715-25.715v-46.621h-6.481c-52.893 0-96.17-45.367-96.17-101.187s43.276-101.187 96.17-101.187z" />
<glyph unicode="&#xe92c;" glyph-name="communication-4" d="M0 447.895c0-249.256 229.809-452.091 512.105-452.091 93.471 0 184.433 22.375 264.103 64.823 41.612-21.956 88.871-33.039 140.729-33.039 16.31 0 32.621 1.046 48.722 3.346s28.857 14.010 32.621 29.902c3.555 16.101-2.928 32.203-16.938 41.403-26.557 17.565-47.049 41.822-61.269 72.769 67.124 78.206 103.926 174.605 103.926 273.095 0 249.256-229.809 452.091-512.105 452.091s-511.895-203.043-511.895-452.3zM51.231 447.895c0 221.027 206.807 400.859 460.873 400.859s460.873-179.833 460.873-400.859c0-92.216-35.13-178.787-101.417-250.72-6.482-7.11-8.573-17.147-5.228-26.348 13.801-37.012 34.294-67.96 61.269-92.007-51.65-1.882-98.699 9.41-138.011 33.039-3.973 2.509-8.573 3.555-13.174 3.555-4.391 0-8.783-1.046-12.756-3.346-75.070-42.658-162.058-65.242-251.556-65.242-254.066 0.209-460.873 180.042-460.873 401.068zM545.144 447.895c0-18.131-14.698-32.83-32.83-32.83s-32.83 14.698-32.83 32.83c0 18.131 14.698 32.83 32.83 32.83s32.83-14.698 32.83-32.83zM686.5 447.895c0-18.131-14.698-32.83-32.83-32.83s-32.83 14.698-32.83 32.83c0 18.131 14.698 32.83 32.83 32.83s32.83-14.698 32.83-32.83zM403.787 447.895c0-18.131-14.698-32.83-32.83-32.83s-32.83 14.698-32.83 32.83c0 18.131 14.698 32.83 32.83 32.83s32.83-14.698 32.83-32.83z" />
<glyph unicode="&#xe92d;" glyph-name="communication-5" d="M917.124 27.399c16.314 0 32.627 1.046 48.732 3.346s28.863 14.013 32.418 29.908c3.556 16.105-2.928 32.209-16.941 41.412-26.562 17.359-47.059 41.83-61.281 72.784 67.137 78.222 103.948 174.641 103.948 273.15 0 249.307-229.856 452.183-512.209 452.183s-511.791-202.876-511.791-452.183 229.647-452.183 512.209-452.183c93.49 0 184.471 22.379 264.157 64.837 41.83-22.17 88.889-33.255 140.758-33.255zM928 78.85c-3.556-0.209-7.111-0.209-10.667-0.209-47.895 0-90.771 11.085-127.373 33.255-3.974 2.51-8.575 3.556-13.176 3.556-4.392 0-8.784-1.046-12.758-3.346-75.085-42.667-162.092-65.255-251.608-65.255-254.118 0-460.967 179.869-460.967 400.941s206.85 400.941 460.967 400.941 460.967-179.869 460.967-400.941c0-92.235-35.137-178.824-101.438-250.771-6.484-7.111-8.575-17.15-5.229-26.353 13.595-36.81 34.301-67.556 61.281-91.817zM660.706 422.275h-122.98v-122.771c0-14.222-11.503-25.725-25.725-25.725s-25.725 11.503-25.725 25.725v122.98h-122.562c-14.222 0-25.725 11.503-25.725 25.725s11.503 25.725 25.725 25.725h122.98v122.562c0 14.222 11.503 25.725 25.725 25.725s25.725-11.503 25.725-25.725v-122.98h122.562c14.222 0 25.725-11.503 25.725-25.725s-11.503-25.516-25.725-25.516z" />
<glyph unicode="&#xe92e;" glyph-name="communication-6" d="M0 448c0-249.256 229.809-452.091 512.105-452.091 93.471 0 184.433 22.375 264.103 64.823 41.612-21.956 88.871-33.039 140.729-33.039 16.31 0 32.621 1.046 48.931 3.346 16.101 2.3 28.857 14.010 32.412 29.693 3.555 16.101-2.928 32.203-16.938 41.403-26.557 17.565-47.258 41.822-61.269 72.769 67.124 78.206 103.926 174.605 103.926 273.095 0 249.256-229.809 452.091-512.105 452.091s-511.895-202.834-511.895-452.091zM51.231 448c0 221.027 206.807 400.859 460.873 400.859s460.873-179.833 460.873-400.859c0-92.216-35.13-178.787-101.417-250.72-6.482-7.11-8.573-17.147-5.228-26.348 13.801-37.012 34.294-67.96 61.269-92.007-51.65-1.882-98.699 9.41-138.011 33.039-3.973 2.509-8.573 3.555-13.174 3.555-4.391 0-8.783-1.046-12.756-3.346-75.070-42.658-162.058-65.242-251.556-65.242-254.066 0.209-460.873 180.042-460.873 401.068zM646.352 572.837l-196.561-195.516-71.724 72.142c-10.037 10.037-26.138 10.037-36.176 0s-10.037-26.138 0-36.176l89.916-90.334c5.019-5.019 11.501-7.528 18.192-7.528 6.482 0 12.965 2.509 17.983 7.528l214.754 213.499c10.037 10.037 10.037 26.138 0 36.176-10.246 10.246-26.348 10.246-36.385 0.209z" />
<glyph unicode="&#xe92f;" glyph-name="compass" d="M511.998 694.21c-176.724 0-320.5-143.776-320.5-320.5s143.776-320.5 320.5-320.5 320.5 143.776 320.5 320.5c0 176.724-143.776 320.5-320.5 320.5zM532.758 95.498v26.75c0 11.466-9.294 20.76-20.76 20.76s-20.76-9.294-20.76-20.76v-26.75c-137.318 10.15-247.302 120.132-257.452 257.45h26.75c11.466 0 20.76 9.296 20.76 20.76 0 11.466-9.294 20.76-20.76 20.76h-26.75c10.15 137.32 120.132 247.302 257.452 257.452v-26.75c0-11.464 9.294-20.76 20.76-20.76s20.76 9.296 20.76 20.76v26.75c137.318-10.15 247.302-120.132 257.45-257.452h-26.748c-11.466 0-20.76-9.294-20.76-20.76 0-11.464 9.294-20.76 20.76-20.76h26.75c-10.152-137.316-120.134-247.3-257.452-257.45zM532.758 810.912v26.97h33.35c11.466 0 20.76 9.294 20.76 20.76v80.6c0 11.466-9.294 20.76-20.76 20.76h-108.23c-11.466 0-20.76-9.294-20.76-20.76v-80.6c0-11.466 9.294-20.76 20.76-20.76h33.364v-26.97c-231.752-10.876-416.952-202.81-416.952-437.202 0-241.354 196.354-437.71 437.71-437.71s437.71 196.356 437.71 437.71c0 234.392-185.202 426.326-416.952 437.202zM478.636 879.4v39.082h66.712v-39.082h-66.712zM511.998-20.296c-217.256 0-394.006 176.75-394.006 394.006s176.75 394.004 394.006 394.004 394.006-176.75 394.006-394.006c0.002-217.256-176.748-394.004-394.006-394.004zM664.82 526.524c-6.12 6.12-15.392 7.802-23.272 4.222l-189.94-86.336c-0.158-0.072-0.306-0.16-0.464-0.236-0.316-0.152-0.632-0.31-0.942-0.48-0.28-0.152-0.548-0.318-0.82-0.486-0.278-0.17-0.558-0.336-0.83-0.522-0.322-0.218-0.63-0.454-0.94-0.69-0.206-0.158-0.418-0.306-0.618-0.472-1.024-0.846-1.964-1.786-2.81-2.81-0.168-0.206-0.318-0.42-0.478-0.628-0.234-0.306-0.468-0.61-0.682-0.928-0.188-0.276-0.358-0.56-0.532-0.844-0.162-0.264-0.324-0.528-0.474-0.802-0.174-0.316-0.332-0.636-0.49-0.96-0.074-0.152-0.16-0.298-0.23-0.452l-86.336-189.94c-3.582-7.878-1.898-17.152 4.22-23.268 3.978-3.98 9.29-6.082 14.684-6.082 2.902 0 5.828 0.61 8.586 1.862l189.94 86.336c0.158 0.072 0.304 0.16 0.458 0.234 0.318 0.156 0.636 0.312 0.948 0.482 0.278 0.152 0.544 0.316 0.812 0.48 0.28 0.17 0.562 0.338 0.834 0.526 0.318 0.216 0.626 0.45 0.93 0.684 0.21 0.16 0.424 0.31 0.628 0.478 1.022 0.844 1.962 1.784 2.806 2.806 0.174 0.21 0.33 0.432 0.494 0.646 0.228 0.3 0.456 0.596 0.668 0.908 0.19 0.28 0.362 0.566 0.538 0.852 0.16 0.262 0.322 0.522 0.47 0.794 0.174 0.316 0.334 0.64 0.492 0.964 0.074 0.15 0.16 0.296 0.23 0.45l86.336 189.94c3.586 7.882 1.904 17.154-4.216 23.272zM415.664 277.376l51.034 112.274 61.24-61.24-112.274-51.034zM557.298 357.766l-61.24 61.24 112.274 51.034-51.034-112.274z" />
<glyph unicode="&#xe930;" glyph-name="credit-card" d="M938.512 608.994h-104.2v147.084c0 47.138-38.35 85.488-85.488 85.488h-663.336c-47.138-0.002-85.488-38.352-85.488-85.49v-383.572c0-47.138 38.35-85.488 85.488-85.488h104.204v-147.092c0-47.138 38.35-85.488 85.488-85.488h663.332c47.138 0 85.488 38.35 85.488 85.488v383.582c0 47.138-38.35 85.488-85.488 85.488zM48.85 756.076c0 20.202 16.436 36.638 36.638 36.638h663.336c20.202 0 36.638-16.436 36.638-36.638v-34.102h-736.612v34.102zM189.692 523.506v-187.638h-104.204c-20.202 0-36.638 16.436-36.638 36.638v187.486h149.040c-5.25-11.072-8.198-23.442-8.198-36.486zM48.85 608.842v64.28h736.612v-64.128h-510.282c-1.652 0-3.288-0.058-4.916-0.152h-221.414zM938.512 103.286h-663.332c-20.202 0-36.638 16.436-36.638 36.638v383.582c0 19.194 14.844 34.958 33.648 36.486h537.69c0.902 0 1.788 0.056 2.662 0.152h125.968c20.202 0 36.638-16.436 36.638-36.638v-383.582h0.002c0-20.202-16.436-36.638-36.638-36.638zM680.422 449.456c-27.784 0-53.332-9.694-73.49-25.848-20.666 16.648-46.418 25.862-73.658 25.862-64.93 0-117.754-52.824-117.754-117.754s52.824-117.754 117.754-117.754c27.242 0 52.992 9.214 73.658 25.858 20.158-16.154 45.706-25.85 73.49-25.85 64.924 0 117.742 52.82 117.742 117.744s-52.818 117.742-117.742 117.742zM575.906 277.598c-12.018-9.516-26.902-14.784-42.634-14.784-37.994-0.002-68.904 30.908-68.904 68.9 0 37.994 30.91 68.904 68.904 68.904 15.732 0 30.614-5.27 42.634-14.784-8.432-16.216-13.226-34.612-13.226-54.116 0-19.506 4.796-37.902 13.226-54.12zM680.422 262.822c-37.986 0-68.89 30.906-68.89 68.894 0 37.986 30.906 68.89 68.89 68.89 37.986 0 68.89-30.906 68.89-68.89 0-37.99-30.904-68.894-68.89-68.894z" />
<glyph unicode="&#xe931;" glyph-name="cursor" d="M1007.684 943.334c-0.060 0.060-0.108 0.124-0.168 0.184s-0.124 0.108-0.184 0.164c-15.936 15.804-38.796 20.552-59.72 12.37l-912.034-356.614c-24.112-9.426-38.238-33.032-35.16-58.734 3.086-25.704 22.392-45.298 48.046-48.756l445.754-60.116c0.834-0.114 1.502-0.778 1.616-1.618l60.116-445.75c3.458-25.654 23.052-44.964 48.756-48.046 2.348-0.282 4.674-0.416 6.978-0.416 22.916 0 43.188 13.668 51.756 35.574l356.618 912.044c8.178 20.92 3.432 43.776-12.374 59.714zM55.694 545.494c-1 0.136-1.45 0.194-1.624 1.642-0.172 1.448 0.252 1.616 1.186 1.978l853.308 333.654-399.11-399.114c-2.602 0.754-453.76 61.84-453.76 61.84zM613.116-8.746c-0.364-0.934-0.51-1.364-1.978-1.184-1.446 0.172-1.508 0.626-1.64 1.62 0 0-61.086 451.158-61.84 453.76l399.11 399.112-333.652-853.308z" />
<glyph unicode="&#xe932;" glyph-name="cursor-1" d="M156.918-63.791c13.19 0 25.961 3.14 38.314 9.003l316.768 155.348 316.977-155.558c12.143-6.072 25.124-9.003 38.314-9.003 28.683 0 55.691 14.655 71.812 38.942 16.121 24.077 18.843 53.597 7.537 80.815l-355.082 851.275c-13.609 32.661-44.176 52.969-79.558 52.969s-65.95-20.308-79.558-52.969l-355.082-851.275c-11.306-27.217-8.584-56.528 7.537-80.815 16.33-24.286 43.129-38.942 72.021-38.732zM124.676 36.076l355.082 851.275c8.375 19.89 26.799 21.565 32.242 21.565s23.868-1.466 32.242-21.565l355.082-851.275c6.281-15.074 0.837-26.799-2.931-32.451-9.631-14.655-28.683-20.308-44.804-12.352l-328.283 161.001c-3.559 1.675-7.328 2.722-11.306 2.722s-7.746-0.837-11.306-2.722l-328.283-161.001c-16.33-7.956-35.173-2.303-44.804 12.352-3.769 5.653-9.212 17.377-2.931 32.451z" />
<glyph unicode="&#xe933;" glyph-name="cursor-2" d="M58.511 441.631l290.897-99.341c13.413-4.611 28.084 2.515 32.694 15.928s-2.515 28.084-15.928 32.694l-291.107 99.341c-21.168 7.335-23.473 26.198-23.473 31.856-0.21 5.659 0.838 24.73 21.587 33.323l851.105 350.208c19.91 8.174 33.952-3.772 37.934-7.545 3.772-3.772 15.719-18.024 7.545-37.934l-350.208-851.314c-8.593-20.748-27.665-21.796-33.323-21.587s-24.73 2.305-31.856 23.473l-94.73 277.484 302.634 356.705c9.222 10.898 7.754 27.036-2.934 36.257-10.898 9.222-27.036 7.754-36.257-2.934l-312.065-368.023c-5.868-6.916-7.545-16.347-4.82-24.94l99.551-290.897c11.736-34.371 42.754-57.215 79.012-58.263 0.838 0 1.886 0 2.725 0 35.209 0 66.227 20.748 79.64 53.443l350.208 851.105c13.413 32.694 6.287 68.742-18.862 93.682-25.15 25.15-60.988 32.275-93.682 18.862l-851.314-350.418c-33.533-13.832-54.491-46.108-53.443-82.365 1.257-36.048 24.102-67.066 58.473-78.802z" />
<glyph unicode="&#xe934;" glyph-name="cut" d="M300.056 266.22c-76.998 0-139.709-62.71-139.709-139.709s62.71-139.709 139.709-139.709c74.617 0 134.946 58.741 138.915 131.771l72.236 170.667 72.236-169.079c3.969-73.823 65.091-132.564 139.709-132.564 77.792 0 140.502 62.71 140.502 140.502s-62.71 140.502-140.502 140.502c-44.453 0-84.143-20.639-110.338-53.184l-66.679 157.172 207.181 489.774c7.144 16.67-0.794 35.721-17.464 42.071-16.67 7.938-35.721 0-42.865-15.876l-182.574-432.62-184.955 432.62c-7.144 16.67-26.195 23.814-42.865 16.67s-23.814-26.195-16.67-42.865l209.563-489.774-66.679-158.76c-26.195 32.546-65.091 52.391-108.75 52.391zM374.673 127.305c0-41.278-33.34-74.617-74.617-74.617s-74.617 33.34-74.617 74.617 33.34 74.617 74.617 74.617c40.484 0 73.823-33.34 74.617-74.617zM723.15 204.304c42.071 0 75.411-34.133 75.411-75.411s-34.133-75.411-75.411-75.411-75.411 34.133-75.411 75.411 33.34 75.411 75.411 75.411z" />
<glyph unicode="&#xe935;" glyph-name="cutlery" d="M282.493 896.020c-30.94 41.256-72.71 63.974-117.614 63.974-44.902 0-86.67-22.72-117.612-63.972-29.426-39.234-45.63-91.032-45.63-145.854 0-54.824 16.204-106.62 45.632-145.854 17.21-22.946 37.776-40.136 60.36-50.892l-34.538-519.317c-1.684-25.306 7.29-50.442 24.618-68.96 17.33-18.522 41.818-29.146 67.182-29.146 25.358 0 49.834 10.618 67.158 29.13 17.328 18.52 26.302 43.66 24.614 68.972l-34.538 519.311c22.588 10.758 43.156 27.948 60.368 50.898 29.424 39.234 45.632 91.034 45.632 145.854s-16.204 106.622-45.632 145.856zM197.748-2.776c-8.6-9.192-20.27-14.254-32.858-14.254-12.598 0-24.276 5.066-32.884 14.264-8.604 9.2-12.884 21.184-12.050 33.75l33.908 509.867c3.652-0.306 7.318-0.516 11.016-0.516 3.696 0 7.36 0.212 11.010 0.516l33.908-509.867c0.834-12.572-3.442-24.562-12.050-33.76zM164.88 587.309c-8.414 0-16.616 1.29-24.528 3.678-0.656 0.242-1.32 0.464-2 0.648-51.366 16.862-89.744 81.518-89.744 158.532 0 89.798 52.16 162.858 116.272 162.858 64.114 0 116.276-73.058 116.276-162.858s-52.16-162.858-116.276-162.858zM1022.358 348.161v585.395l-0.198-0.086c0.678 5.174-0.348 10.606-3.306 15.392-6.82 11.032-21.29 14.446-32.328 7.626-95.81-59.234-153.018-161.832-153.036-274.457 0-0.016-0.002-0.030-0.002-0.044v-307.561c0-26.986 21.566-48.966 48.338-49.782v-318.041c0-38.746 31.522-70.268 70.268-70.268s70.27 31.522 70.27 70.268v341.441c-0.002 0.040-0.006 0.078-0.006 0.118zM883.348 371.531c-1.6 0.002-2.888 1.294-2.888 2.89v307.523c0 0.010 0.002 0.018 0.002 0.028 0 81.242 34.826 156.378 94.924 208.278v-518.719h-92.038zM975.392 6.598c0-12.846-10.45-23.298-23.3-23.298-12.846 0-23.298 10.45-23.298 23.298v317.961h46.598v-317.961zM665.597 959.994c-12.97 0-23.486-10.514-23.486-23.486v-266.799h-59.84v266.799c0 12.97-10.516 23.486-23.486 23.486s-23.486-10.514-23.486-23.486v-266.799h-59.84v266.799c0 12.97-10.516 23.486-23.486 23.486s-23.486-10.514-23.486-23.486v-339.967c0-38.28 31.146-69.428 69.428-69.428h4.178l-32.95-495.299c-1.654-24.704 7.102-49.248 24.026-67.34 16.926-18.098 40.84-28.476 65.614-28.476 24.77 0 48.684 10.378 65.612 28.474 16.922 18.090 25.678 42.636 24.026 67.332l-32.952 495.309h4.186c38.284 0 69.43 31.146 69.43 69.428v339.969c-0.004 12.97-10.52 23.484-23.488 23.484zM590.089-3.438c-8.196-8.764-19.316-13.59-31.308-13.59s-23.112 4.826-31.308 13.59c-8.192 8.758-12.264 20.164-11.464 32.126l33.156 498.429h19.23l33.158-498.435c0.8-11.956-3.27-23.362-11.464-32.12zM642.109 596.543c0.002-12.384-10.072-22.456-22.456-22.456h-93.244c-0.030-0.002-0.062 0.002-0.092 0h-28.4c-12.384 0-22.456 10.072-22.456 22.456v26.2h166.648v-26.2z" />
<glyph unicode="&#xe936;" glyph-name="delete" d="M256.981 134.266c37.242-40.59 90.385-64.023 145.411-64.023h453.809c92.477 0 167.799 75.321 167.799 167.799v419.915c0 92.477-75.321 167.799-167.799 167.799h-453.809c-55.235 0-108.169-23.224-145.411-64.023l-233.914-254.627c-30.756-33.685-30.756-84.318 0-118.003l233.914-254.836zM60.937 472.374l233.914 254.836c27.618 30.128 66.952 47.285 107.751 47.285h453.809c64.232 0 116.538-52.306 116.538-116.538v-419.706c0-64.232-52.306-116.538-116.538-116.538h-454.018c-40.799 0-80.133 17.156-107.751 47.285l-233.704 254.836c-12.763 13.809-12.763 34.731 0 48.54zM471.646 311.898c5.021-5.021 11.507-7.532 18.203-7.532s13.181 2.511 18.203 7.532l100.010 100.010 100.010-100.010c5.021-5.021 11.507-7.532 18.203-7.532s13.181 2.511 18.203 7.532c10.043 10.043 10.043 26.153 0 36.196l-100.219 100.010 100.010 100.010c10.043 10.043 10.043 26.153 0 36.196s-26.153 10.043-36.196 0l-100.010-100.010-100.010 100.010c-10.043 10.043-26.153 10.043-36.196 0s-10.043-26.153 0-36.196l100.010-100.010-100.010-100.010c-10.043-10.043-10.043-26.151-0.209-36.196z" />
<glyph unicode="&#xe937;" glyph-name="delivery" d="M978.959 599.463c-27.653 29.957-67.038 46.507-110.822 46.507h-105.375v56.982c0 13.827-11.313 25.139-25.139 25.139h-501.944c-13.827 0-25.139-11.313-25.139-25.139v-87.568h-97.833c-13.827 0-25.139-11.313-25.139-25.139s11.313-25.139 25.139-25.139h122.344c0.209 0 0.419 0 0.628 0 0 0 0 0 0.209 0 13.827 0 25.139 11.313 25.139 25.139v87.568h451.666v-394.056h-236.727c-1.047 0-2.095 0-3.142-0.209-12.57 31.005-42.946 53.002-78.35 53.002-35.614 0-65.99-22.206-78.35-53.421-1.885 0.419-3.561 0.628-5.447 0.628h-49.65v87.777c0 13.827-11.313 25.139-25.139 25.139-0.419 0-0.838 0-1.257 0s-0.628 0-1.047 0h-120.877c-13.827 0-25.139-11.313-25.139-25.139s11.313-25.139 25.139-25.139h97.833v-87.568c0-13.827 11.313-25.139 25.139-25.139h74.789c0.628 0 1.047 0 1.676 0 8.38-37.709 42.108-65.781 82.331-65.781s73.741 28.072 82.331 65.781h301.25c8.589-37.499 42.108-65.781 82.331-65.781s73.741 28.072 82.331 65.781h56.144c13.827 0 25.139 11.313 25.139 25.139v208.864c0 54.259-15.712 99.928-45.041 131.771zM394.475 217.977c-18.854 0-34.147 15.293-34.147 34.147s15.293 34.147 34.147 34.147 34.147-15.293 34.147-34.147c0-18.854-15.293-34.147-34.147-34.147zM860.386 217.977c-18.854 0-34.147 15.293-34.147 34.147s15.293 34.147 34.147 34.147 34.147-15.293 34.147-34.147c-0.209-18.854-15.502-34.147-34.147-34.147zM973.722 283.758h-35.195c-12.57 30.795-42.946 52.792-78.141 52.792s-65.571-21.787-78.141-52.792h-19.273v311.935h105.375c65.99 0 105.375-47.974 105.375-128.209v-183.725zM431.764 433.755c-9.846-9.846-9.846-25.768 0-35.614 4.818-4.818 11.313-7.332 17.807-7.332s12.779 2.514 17.807 7.332l64.943 64.943c0.419 0.628 1.047 1.047 1.466 1.676 0.209 0.419 0.419 0.628 0.628 1.047s0.419 0.628 0.838 1.047c0.209 0.419 0.419 0.838 0.628 1.257s0.419 0.628 0.628 1.047c0.209 0.419 0.419 0.838 0.628 1.257s0.419 0.628 0.419 1.047c0.209 0.419 0.209 0.838 0.419 1.257s0.209 0.838 0.419 1.047c0.209 0.419 0.209 0.838 0.209 1.257s0.209 0.838 0.209 1.257c0 0.419 0.209 0.838 0.209 1.466 0 0.419 0.209 0.628 0.209 1.047 0.209 1.676 0.209 3.352 0 5.028 0 0.419 0 0.628-0.209 1.047 0 0.419-0.209 0.838-0.209 1.466 0 0.419-0.209 0.838-0.209 1.257s-0.209 0.838-0.209 1.257c-0.209 0.419-0.209 0.838-0.419 1.047-0.209 0.419-0.209 0.838-0.419 1.257s-0.419 0.628-0.419 1.047c-0.209 0.419-0.419 0.838-0.628 1.257s-0.419 0.628-0.628 1.047c-0.209 0.419-0.419 0.838-0.628 1.257s-0.419 0.628-0.838 1.047c-0.209 0.419-0.419 0.628-0.628 1.047-0.419 0.628-1.047 1.047-1.466 1.676l-61.8 61.8c-9.846 9.846-25.768 9.846-35.614 0s-9.846-25.768 0-35.614l18.645-18.645h-428.412c-13.827 0-25.139-11.313-25.139-25.139s11.313-25.139 25.139-25.139h428.203l-21.578-23.044z" />
<glyph unicode="&#xe938;" glyph-name="dislike" d="M421.88-19.932c28.404-20.885 61.611-26.524 89.597-26.524 32.581 0 57.852 7.728 59.732 8.354 10.651 3.342 17.961 13.158 17.961 24.436v178.568c0 140.557 163.113 188.384 170.005 190.473 2.089 0.627 3.968 1.253 5.639 2.297 12.113-24.227 37.176-40.935 65.997-40.935h119.672c40.517 0 73.516 32.999 73.516 73.516v433.994c0 40.517-32.999 73.516-73.516 73.516h-69.13c-14.202 0-25.689-11.487-25.689-25.689s11.487-25.271 25.48-25.271h69.13c12.322 0 22.347-10.025 22.347-22.347v-434.203c0-12.322-10.025-22.347-22.347-22.347h-119.672c-12.322 0-22.347 10.025-22.347 22.347v409.558c0 78.528-63.909 142.646-142.646 142.646h-436.918c-96.907 0-158.518-50.751-169.379-138.469l-58.896-369.668c-0.209-1.253-0.418-2.715-0.418-3.968v-4.386c0-78.528 63.909-142.646 142.646-142.646h220.547v-159.145c0.209-67.25 19.841-115.704 58.687-144.108zM142.855 334.28c-50.333 0-91.477 40.935-91.477 91.477v2.297l58.687 368.623c7.728 62.656 47.618 94.61 118.628 94.61h436.918c50.333 0 91.477-40.935 91.477-91.477v-394.939c-3.759 0.835-7.728 0.627-11.696-0.418-8.563-2.297-207.39-59.94-207.39-239.762v-157.892c-21.721-3.55-58.896-5.221-85.838 14.411-24.853 18.379-37.593 52.839-37.593 102.964v184.625c0 14.202-11.487 25.689-25.689 25.689l-246.027-0.209z" />
<glyph unicode="&#xe939;" glyph-name="dollar-symbol" d="M587.072 474.788h-149.711c-76.26 0-138.262 62.002-138.262 138.262s62.002 138.262 138.262 138.262h264.209c14.258 0 25.924 11.666 25.924 25.924s-11.666 25.924-25.924 25.924h-163.538v130.916c0 14.258-11.666 25.924-25.924 25.924s-25.924-11.666-25.924-25.924v-130.916h-49.040c-104.776 0-190.11-85.333-190.11-190.11s85.333-190.11 190.11-190.11h149.711c76.26 0 138.262-62.002 138.262-138.262s-62.002-138.262-138.262-138.262h-268.962c-14.258 0-25.924-11.666-25.924-25.924s11.666-25.924 25.924-25.924h168.29v-132.645c0-14.258 11.666-25.924 25.924-25.924s25.924 11.666 25.924 25.924v132.645h50.336c0.216 0 0.648 0 0.864 0 103.696 1.296 187.733 85.981 187.733 190.11 0.216 104.776-85.117 190.11-189.894 190.11z" />
<glyph unicode="&#xe93a;" glyph-name="dollar-symbol-1" d="M952.63 664.046h-514.732c-15.025 0-27.319-12.293-27.319-27.319s12.293-27.319 27.319-27.319h514.732c15.025 0 27.319 12.293 27.319 27.319s-12.066 27.319-27.319 27.319zM437.898 833.878h514.732c15.025 0 27.319 12.293 27.319 27.319s-12.293 27.319-27.319 27.319h-514.732c-15.025 0-27.319-12.293-27.319-27.319s12.293-27.319 27.319-27.319zM952.63 439.577h-863.047c-15.025 0-27.319-12.293-27.319-27.319s12.293-27.319 27.319-27.319h863.047c15.025 0 27.319 12.293 27.319 27.319s-12.066 27.319-27.319 27.319zM952.63 215.107h-863.047c-15.025 0-27.319-12.293-27.319-27.319s12.293-27.319 27.319-27.319h863.047c15.025 0 27.319 12.293 27.319 27.319s-12.066 27.319-27.319 27.319zM952.63-9.362h-863.047c-15.025 0-27.319-12.293-27.319-27.319s12.293-27.319 27.319-27.319h863.047c15.025 0 27.319 12.293 27.319 27.319s-12.066 27.319-27.319 27.319zM141.261 698.878h63.744c23.449 0 42.572-19.123 42.572-42.572s-19.123-42.572-42.572-42.572h-114.511c-15.025 0-27.319-12.293-27.319-27.319s12.293-27.319 27.319-27.319h55.321v-40.068c0-15.025 12.293-27.319 27.319-27.319s27.319 12.293 27.319 27.319v40.068h5.236c0.228 0 0.455 0 0.683 0 53.044 0.683 95.843 43.938 95.843 97.209 0 53.499-43.482 97.209-97.209 97.209h-63.744c-23.449 0-42.572 19.123-42.572 42.572s19.123 42.572 42.572 42.572h112.462c15.025 0 27.319 12.293 27.319 27.319s-12.293 27.319-27.319 27.319h-53.272v39.385c0 15.025-12.293 27.319-27.319 27.319s-27.319-12.293-27.319-27.319v-39.385h-4.553c-53.499 0-97.209-43.482-97.209-97.209 0.228-53.499 43.71-97.209 97.209-97.209z" />
<glyph unicode="&#xe93b;" glyph-name="dollar-symbol-2" d="M558.662 474.221h-93.324c-42.167 0-76.629 34.462-76.629 76.629s34.462 76.629 76.629 76.629h164.602c14.127 0 25.686 11.559 25.686 25.686s-11.559 25.686-25.686 25.686h-92.254v71.92c0 14.127-11.559 25.686-25.686 25.686s-25.686-11.559-25.686-25.686v-71.92h-20.977c-70.635 0-128-57.365-128-128s57.365-128 128-128h93.324c42.167 0 76.629-34.462 76.629-76.629s-34.462-76.629-76.629-76.629h-167.599c-14.127 0-25.686-11.559-25.686-25.686s11.559-25.686 25.686-25.686h95.251v-72.99c0-14.127 11.559-25.686 25.686-25.686s25.686 11.559 25.686 25.686v72.99h21.833c0.214 0 0.428 0 0.642 0 69.779 0.856 126.288 58.007 126.288 128 0.214 70.421-57.151 128-127.786 128zM172.094 474.007h-69.993c-28.040 0-50.943 22.903-50.943 50.943s22.903 50.943 50.943 50.943h123.077c14.127 0 25.686 11.559 25.686 25.686s-11.559 25.686-25.686 25.686h-62.288v47.304c0 14.127-11.559 25.686-25.686 25.686s-25.686-11.559-25.686-25.686v-47.304h-9.204c-56.294 0-102.314-45.806-102.314-102.314s45.806-102.314 102.314-102.314h69.779c28.040 0 50.943-22.903 50.943-50.943s-22.903-50.943-50.943-50.943h-125.645c-14.127 0-25.686-11.559-25.686-25.686s11.559-25.686 25.686-25.686h64.856v-48.161c0-14.127 11.559-25.686 25.686-25.686s25.686 11.559 25.686 25.686v48.161h9.846c0.214 0 0.428 0 0.642 0 55.652 0.642 100.816 46.234 100.816 102.314 0.214 56.508-45.592 102.314-101.886 102.314zM921.9 474.007h-69.779c-28.040 0-50.943 22.903-50.943 50.943s22.903 50.943 50.943 50.943h123.077c14.127 0 25.686 11.559 25.686 25.686s-11.559 25.686-25.686 25.686h-62.502v47.304c0 14.127-11.559 25.686-25.686 25.686s-25.686-11.559-25.686-25.686v-47.304h-9.204c-56.294 0-102.314-45.806-102.314-102.314s45.806-102.314 102.314-102.314h69.779c28.040 0 50.943-22.903 50.943-50.943s-22.903-50.943-50.943-50.943h-125.431c-14.127 0-25.686-11.559-25.686-25.686s11.559-25.686 25.686-25.686h64.856v-48.161c0-14.127 11.559-25.686 25.686-25.686s25.686 11.559 25.686 25.686v48.161h9.846c0.214 0 0.428 0 0.642 0 55.652 0.642 100.816 46.234 100.816 102.314 0 56.508-45.806 102.314-102.1 102.314z" />
<glyph unicode="&#xe93c;" glyph-name="dollar-symbol-3" d="M886.42 780.044c-88.7 88.7-206.686 137.58-332.045 137.58-127.677 0-247.138-50.355-336.259-141.794-9.692-9.902-9.481-25.915 0.421-35.817 9.902-9.692 25.915-9.481 35.817 0.421 79.64 81.537 186.038 126.413 300.021 126.413 231.126 0.211 419.060-187.724 419.060-418.849s-187.934-419.060-419.060-419.060-418.849 187.934-418.849 419.060v5.267l41.506-41.716c4.846-4.846 11.377-7.374 17.909-7.374s12.852 2.528 17.909 7.374c9.902 9.902 9.902 25.915 0 35.817l-84.697 84.908c-9.902 9.902-25.915 9.902-35.817 0l-84.908-84.908c-9.902-9.902-9.902-25.915 0-35.817s25.915-9.902 35.817 0l41.716 41.716v-5.267c0-125.36 48.88-243.346 137.58-332.045s206.686-137.58 332.045-137.58 243.346 48.88 332.045 137.58c88.489 88.7 137.369 206.686 137.369 332.045s-48.88 243.346-137.58 332.045zM554.375 741.699c-13.905 0-25.283-11.377-25.283-25.283v-61.31h-16.012c-63.839 0-115.879-52.040-115.879-115.879s52.040-115.879 115.879-115.879h82.59c36.028 0 65.314-29.286 65.314-65.314s-29.286-65.314-65.314-65.314h-148.536c-13.905 0-25.283-11.377-25.283-25.283s11.377-25.283 25.283-25.283h81.958v-62.153c0-13.905 11.377-25.283 25.283-25.283s25.283 11.377 25.283 25.283v62.153h16.855c0.211 0 0.421 0 0.632 0 63.207 0.843 114.404 52.461 114.404 115.879 0 63.839-52.040 115.879-115.879 115.879h-82.59c-36.028 0-65.314 29.286-65.314 65.314s29.286 65.314 65.314 65.314h145.797c13.905 0 25.283 11.377 25.283 25.283s-11.377 25.283-25.283 25.283h-79.219v61.31c0 13.905-11.167 25.283-25.283 25.283z" />
<glyph unicode="&#xe93d;" glyph-name="dollar-symbol-4" d="M695.513 231.226l-158.383 91.44v182.88c0 13.938-11.404 25.341-25.341 25.341s-25.341-11.404-25.341-25.341v-182.88l-158.383-91.44c-12.037-6.969-16.261-22.596-9.292-34.633 4.646-8.236 13.304-12.671 21.962-12.671 4.224 0 8.658 1.056 12.671 3.379l158.383 91.44 158.383-91.44c4.012-2.323 8.447-3.379 12.671-3.379 8.658 0 17.317 4.646 21.962 12.671 6.969 12.037 2.745 27.664-9.292 34.633zM486.025 741.854h51.739c17.317 0 31.254-14.149 31.254-31.254s-14.149-31.254-31.254-31.254h-92.918c-13.938 0-25.341-11.404-25.341-25.341s11.404-25.341 25.341-25.341h41.602v-29.354c0-13.938 11.404-25.341 25.341-25.341s25.341 11.404 25.341 25.341v29.354h1.056c0.211 0 0.422 0 0.634 0 44.77 0.634 80.881 37.167 80.881 81.937 0 45.192-36.745 81.937-81.937 81.937h-51.739c-17.317 0-31.254 14.149-31.254 31.254s14.149 31.254 31.254 31.254h91.229c13.938 0 25.341 11.404 25.341 25.341s-11.404 25.341-25.341 25.341h-40.124v28.931c0 13.938-11.404 25.341-25.341 25.341s-25.341-11.404-25.341-25.341v-28.72h-0.422c-45.192 0-81.937-36.745-81.937-81.937s36.745-82.148 81.937-82.148zM877.971 181.811h-51.739c-17.317 0-31.254 14.149-31.254 31.254s14.149 31.254 31.254 31.254h91.229c13.938 0 25.341 11.404 25.341 25.341s-11.404 25.341-25.341 25.341h-39.913v28.72c0 13.938-11.404 25.341-25.341 25.341s-25.341-11.404-25.341-25.341v-28.72h-0.422c-45.192 0-81.937-36.745-81.937-81.937s36.745-81.937 81.937-81.937h51.739c17.317 0 31.254-14.149 31.254-31.254s-14.149-31.254-31.254-31.254h-92.918c-13.938 0-25.341-11.404-25.341-25.341s11.404-25.341 25.341-25.341h41.602v-29.354c0-13.938 11.404-25.341 25.341-25.341s25.341 11.404 25.341 25.341v29.354h1.056c0.211 0 0.422 0 0.634 0 44.77 0.634 80.881 37.167 80.881 81.937-0.211 45.192-36.956 81.937-82.148 81.937zM197.345 154.569h-51.739c-17.317 0-31.254 14.149-31.254 31.254s14.149 31.254 31.254 31.254h91.229c13.938 0 25.341 11.404 25.341 25.341s-11.404 25.341-25.341 25.341h-39.913v28.72c0 13.938-11.404 25.341-25.341 25.341s-25.341-11.404-25.341-25.341v-28.72h-0.422c-45.192 0-81.937-36.745-81.937-81.937s36.745-81.937 81.937-81.937h51.739c17.317 0 31.254-14.149 31.254-31.254s-14.149-31.254-31.254-31.254h-92.918c-13.938 0-25.341-11.404-25.341-25.341s11.404-25.341 25.341-25.341h41.602v-29.354c0-13.938 11.404-25.341 25.341-25.341s25.341 11.404 25.341 25.341v29.354h1.056c0.211 0 0.422 0 0.634 0 44.77 0.634 80.881 37.167 80.881 81.937-0.211 44.981-36.956 81.937-82.148 81.937z" />
</font>
</defs>
</svg>
