<svg xmlns="http://www.w3.org/2000/svg" viewBox="0 0 841.9 206"><path d="M89.6 117.6h-28V163H36.8V22h55.6c32.8 0 53.6 18.5 53.6 47.3 0 31.8-25.4 48.3-56.4 48.3zm.8-73.1H61.6v50.8h28.8c18.7 0 30.4-10.3 30.4-25.4 0-16.7-11.9-25.4-30.4-25.4z"/><path d="M197.9 163v-13.1c-7.3 8.7-18.3 15.3-34.4 15.3-20.1 0-37.9-11.5-37.9-32.8v-.4c0-23 18.3-34.2 43.1-34.2 12.9 0 21.1 1.8 29.4 4.4v-2.6c0-14.7-9.3-22.8-26.2-22.8-11.9 0-20.7 2.6-30.4 6.6l-6.6-19.5c11.7-5.2 23.2-8.9 40.5-8.9 31.4 0 46.7 16.5 46.7 44.9v63h-24.2v.1zm.6-45.2c-6.2-2.4-14.9-4.2-24.4-4.2-15.3 0-24.4 6.2-24.4 17.1v.4c0 10.1 9.1 15.7 20.5 15.7 16.1 0 28.2-9.1 28.2-22.4l.1-6.6zm81.6 48.2c-8.5 21.8-17.9 29.8-35 29.8-10.3 0-17.7-2.4-25.2-6.4l8.3-18.1c4.4 2.4 9.3 4 14.3 4 6.9 0 11.1-3 15.1-12.3L213.3 56.7h26l30.2 79 27.6-79h25.4L280.1 166zm107.8-65.4h50.2v39.3c-6.9 5.6-23.5 16.7-45.4 16.7-35.6 0-60.5-26.3-60.5-64.4 0-31.3 22.3-63.8 59.5-63.8 20.1 0 32.2 6.7 44.2 16.7l2.1 1.7 7.9-9.4-2.1-1.7c-13.7-11.4-27.8-19-51.7-19-45.3 0-72.4 38.5-72.4 76 0 44.3 29.9 75.2 72.8 75.2 28.1 0 47.6-13.9 56.8-22.3l.9-.8V88.3H388l-.1 12.3zm372.5-44.3c-17.2 0-29.3 8.7-36.4 18.6V58.7h-11.9v106.9H724v-59.9c0-21.3 15.6-38 35.6-38 21 0 33.5 13.7 33.5 36.8v61.1H805v-62.1c0-29.1-17-47.2-44.6-47.2zM705.5 94c-5.5-20.3-20.7-37.7-46.8-37.7-29.2 0-51.3 23.9-51.3 55.9 0 32.4 22.3 55.9 53.1 55.9 22.1 0 35.9-12 43.6-22l1.6-2.1-9.1-7.2-1.7 2.2c-8.6 11.2-21.2 17.7-34.3 17.7-22.1 0-38.4-16-40.6-39.3h87.5c.1-.1 1.2-11.4-2-23.4zm-85.3 12.1c2.2-22.4 17.9-38.3 38.2-38.3 23.1 0 35.1 19.3 37 38.3h-75.2zM513.6 67.4V56.8l-3.9-.1c-18.5 0-31.6 11.2-39.2 23.7V58.7h-11.9v106.9h11.9v-50.9c0-22.1 15.1-46 39.4-46h3.7v-1.3zm90.5 51.9l.2-5c0-32-18.5-57.6-50.7-57.6-11 0-20.8 3.4-29 9.2 0 0-2.2 1.6-4.7 3.8-11.4 10.4-18.4 26.1-18.4 43.8 0 33.9 24.4 56.8 54.3 56.8 20.6 0 33.9-8.2 44.8-20.4l-10.1-9c-8.8 9.3-19.3 15.4-34.3 15.4-19.1 0-36-13.2-38.3-36.8 0-.2 31.9 30.1 86.2-.2zm-72.4-15.4l-7.7-7.8c6.3-10 17.5-16.7 30.2-16.7 13.7 0 25.6 7.8 31.6 19.1l-9.1 5.3c-4.1-8.2-12.7-13.9-22.5-13.9-9.8.1-18.3 5.8-22.5 14z"/></svg>